<svg width="22" height="23" viewBox="0 0 22 23" fill="none" xmlns="http://www.w3.org/2000/svg">
<path d="M21.047 6.27465C21.0476 5.89085 20.8925 5.63354 20.5439 5.44071C17.5726 3.79824 14.4436 2.06153 11.2424 0.27831C11.0732 0.184065 10.9142 0.138184 10.7559 0.138184C10.5976 0.138184 10.4379 0.184065 10.2681 0.27831C6.84796 2.18491 3.81151 3.86954 0.985111 5.43017C0.621835 5.63106 0.459668 5.89767 0.460945 6.29573C0.467968 9.58935 0.467969 13.0491 0.461584 16.5796C0.460946 16.9752 0.617365 17.2387 0.96851 17.4328C3.45079 18.8043 5.97137 20.2043 8.40896 21.5585L10.5561 22.7508H10.9519L13.341 21.4252C15.7064 20.1126 18.1523 18.7553 20.5599 17.4235C20.8925 17.2393 21.047 16.9783 21.047 16.6025C21.0413 13.0832 21.0419 9.60857 21.047 6.27465ZM1.95108 9.10573V7.4397C1.95108 7.4242 1.95172 7.40869 1.95235 7.39071C1.98555 7.40497 2.01556 7.41799 2.04302 7.43349L2.26966 7.55936C4.7679 8.94452 7.35106 10.3774 9.8876 11.7923C9.94315 11.8233 10.0044 11.9145 10.0044 11.9666C10.0115 14.673 10.0108 17.4253 10.0102 20.0865V20.753C10.0102 20.763 10.0095 20.7723 10.0089 20.7828C10.0089 20.7828 9.54156 20.5243 9.39153 20.4406L8.0942 19.7207C6.09395 18.6108 4.0937 17.501 2.09217 16.393C1.98938 16.3359 1.94597 16.2938 1.94597 16.1822C1.95108 13.8236 1.95108 11.4253 1.95108 9.10573ZM2.8117 6.19653C2.77978 6.17855 2.7485 6.15995 2.71402 6.13886L2.91194 6.0285C3.11816 5.91317 3.31863 5.80157 3.51974 5.68996L5.11649 4.80393C6.94628 3.78894 8.77543 2.77394 10.6039 1.75771C10.6684 1.72175 10.715 1.70129 10.7623 1.70129C10.7955 1.70129 10.8306 1.71183 10.8695 1.73353C12.9106 2.87067 14.9875 4.02393 16.9961 5.13875L18.776 6.12708C18.7837 6.13142 18.7914 6.13577 18.799 6.14135L18.3189 6.40796C17.932 6.62311 17.549 6.83578 17.1659 7.04846L15.8251 7.79187C14.2182 8.68286 12.5569 9.60423 10.9251 10.5138C10.8536 10.5535 10.8019 10.5709 10.7521 10.5709C10.7061 10.5709 10.6582 10.556 10.6001 10.5237C8.55708 9.38536 6.47766 8.23148 4.46719 7.11542L2.8117 6.19653ZM11.4933 12.0348C11.4933 11.8953 11.5303 11.8326 11.6529 11.7644C13.6627 10.6539 15.7032 9.52115 17.6773 8.42617L19.4043 7.46759C19.4496 7.44279 19.4956 7.41923 19.5518 7.39133C19.5537 7.39009 19.5556 7.38947 19.5575 7.38823V8.86329C19.5575 11.2882 19.5575 13.7126 19.5594 16.1375C19.5594 16.2603 19.5473 16.3254 19.4388 16.3855C17.3325 17.5487 15.1931 18.7355 13.1245 19.8825L11.5674 20.7462C11.5456 20.7586 11.5233 20.7698 11.4965 20.7834V19.1298C11.4978 16.8047 11.4978 14.4002 11.4933 12.0348Z" fill="#B0AADD" fill-opacity="0.75"/>
</svg>
