<svg width="21" height="18" viewBox="0 0 21 18" fill="none" xmlns="http://www.w3.org/2000/svg">
<g clip-path="url(#clip0_1059_15119)">
<path d="M20.7549 10.8816C20.7344 10.9294 20.7145 10.9778 20.694 11.0256C20.5461 11.3706 20.1887 11.5699 19.8393 11.5026C19.4689 11.4316 19.2072 11.1236 19.1935 10.7415C19.191 10.6755 19.1929 10.6101 19.1929 10.5441C19.1929 7.84532 19.1929 5.14651 19.1929 2.4477C19.1929 2.37039 19.1929 2.29246 19.1929 2.19253C19.1015 2.19253 19.0257 2.19253 18.9498 2.19253C15.2196 2.19253 11.4894 2.19253 7.75914 2.19253C7.30973 2.19253 6.99768 1.95306 6.91936 1.55333C6.82799 1.08635 7.16303 0.645139 7.63296 0.614971C7.71066 0.609943 7.78898 0.613086 7.8673 0.613086C11.8387 0.613086 15.8095 0.616857 19.7809 0.607429C20.2651 0.606172 20.5983 0.770212 20.7556 1.24474C20.7549 4.45704 20.7549 7.66934 20.7549 10.8816Z" fill="#B0AADD" fill-opacity="0.75"/>
<path d="M7.67729 17.7247C5.67201 17.7247 3.66735 17.7247 1.66206 17.7247C1.04668 17.7247 0.753906 17.4274 0.753906 16.8065C0.753906 13.7852 0.753906 10.764 0.753906 7.74275C0.753906 7.12995 1.05725 6.8245 1.6689 6.8245C5.67885 6.8245 9.68942 6.82387 13.6994 6.8245C14.3048 6.8245 14.6112 7.13498 14.6112 7.74903C14.6119 10.7703 14.6119 13.7915 14.6112 16.8127C14.6112 17.4174 14.3085 17.7247 13.7124 17.7247C11.7003 17.7247 9.68879 17.7247 7.67729 17.7247ZM13.0374 8.41902C9.45134 8.41902 5.88895 8.41902 2.32718 8.41902C2.32718 10.9984 2.32718 13.5627 2.32718 16.1327C5.90076 16.1327 9.46377 16.1327 13.0374 16.1327C13.0374 13.5577 13.0374 10.9946 13.0374 8.41902Z" fill="#B0AADD" fill-opacity="0.75"/>
<path d="M16.1161 5.303C15.9968 5.303 15.9129 5.303 15.8283 5.303C12.1379 5.303 8.44681 5.30363 4.75637 5.30112C4.62148 5.30112 4.47976 5.29106 4.35295 5.25084C3.99242 5.13582 3.78605 4.77129 3.84075 4.37847C3.89048 4.02336 4.19942 3.74619 4.56865 3.72608C4.62708 3.72294 4.68551 3.72357 4.74456 3.72357C8.75451 3.72357 12.7638 3.72419 16.7738 3.72168C17.0386 3.72168 17.2773 3.76505 17.4675 3.96805C17.6415 4.15346 17.6813 4.37721 17.6807 4.62296C17.6782 7.47953 17.6788 10.3355 17.6788 13.192C17.6788 13.4095 17.6832 13.6263 17.6763 13.8438C17.6627 14.2793 17.3456 14.6043 16.9236 14.6225C16.5307 14.6395 16.1876 14.3428 16.1286 13.9293C16.1155 13.8388 16.1167 13.7457 16.1167 13.654C16.1161 10.9621 16.1161 8.27019 16.1161 5.57829C16.1161 5.49344 16.1161 5.40922 16.1161 5.303Z" fill="#B0AADD" fill-opacity="0.75"/>
</g>
<defs>
<clipPath id="clip0_1059_15119">
<rect width="20" height="17.1174" fill="white" transform="translate(0.753906 0.607422)"/>
</clipPath>
</defs>
</svg>
