<svg width="15" height="19" viewBox="0 0 15 19" fill="none" xmlns="http://www.w3.org/2000/svg">
<g clip-path="url(#clip0_1059_18311)">
<path d="M14.9072 4.48963C14.4901 3.59488 13.8154 2.97375 12.8865 2.62428C12.3518 2.42302 11.7962 2.39229 11.2351 2.41559C11.0602 2.42302 10.9854 2.38188 10.9341 2.19797C10.661 1.2244 10.0456 0.544288 9.0938 0.179942C8.88202 0.0991416 8.65478 0.0589893 8.43452 0C7.81262 0 7.19121 0 6.5693 0C6.43775 0.0312296 6.30469 0.0565107 6.17513 0.0946803C5.0559 0.421848 4.35326 1.15698 4.0448 2.26836C4.01341 2.38089 3.97653 2.41955 3.86142 2.41459C3.66309 2.40617 3.46326 2.40468 3.26493 2.41459C1.76847 2.49193 0.698568 3.20624 0.0681901 4.55853C-0.133132 4.99029 0.129982 5.37695 0.612358 5.37992C1.02896 5.3824 1.44505 5.38042 1.86165 5.38042C6.01317 5.38042 10.1652 5.38042 14.3167 5.38042C14.9027 5.38042 15.1509 5.01161 14.9072 4.48963ZM5.16204 2.39774C5.41917 1.72457 5.86069 1.24819 6.56482 1.16343C7.18174 1.08907 7.82159 1.08957 8.43851 1.16343C9.14264 1.2477 9.58465 1.72358 9.84179 2.39824C8.27656 2.39774 6.73475 2.39774 5.16204 2.39774Z" fill="#B0AADD" fill-opacity="0.4"/>
<path d="M1.38276 7.45368C1.48691 8.92693 1.58957 10.4007 1.69521 11.8739C1.82727 13.717 1.9653 15.56 2.09188 17.4035C2.15317 18.2953 2.86428 18.9938 3.76524 18.9958C6.25735 19.0012 8.74946 19.0017 11.2421 18.9958C12.143 18.9938 12.8606 18.2958 12.9134 17.4025C12.9379 16.9891 12.9703 16.5762 12.9997 16.1633C13.1063 14.6836 13.2139 13.2044 13.3206 11.7247C13.4167 10.3932 13.5119 9.06176 13.6071 7.73029C13.636 7.3253 13.6629 6.91981 13.6913 6.50391C9.56073 6.50391 5.44409 6.50391 1.3125 6.50391C1.33692 6.8281 1.36084 7.14089 1.38276 7.45368ZM8.87006 12.7588C8.87504 12.6601 8.87952 12.5615 8.88451 12.4628C8.88401 12.4628 8.88301 12.4628 8.88251 12.4628C8.93284 11.4699 8.98168 10.4765 9.03351 9.48361C9.04995 9.16933 9.3016 8.93585 9.60608 8.94279C9.91653 8.94973 10.1617 9.20254 10.1483 9.53021C10.1154 10.3447 10.0715 11.1586 10.0302 11.9731C9.97234 13.1201 9.91255 14.2672 9.85374 15.4148C9.83929 15.6998 9.69578 15.8941 9.44313 15.9685C9.22087 16.0339 8.97122 15.9665 8.85461 15.7647C8.78185 15.6388 8.737 15.4752 8.74199 15.331C8.77488 14.4734 8.82571 13.6163 8.87006 12.7588ZM5.39127 8.94329C5.69524 8.93139 5.95537 9.16239 5.97181 9.47469C6.02563 10.4735 6.07397 11.4729 6.1243 12.4722C6.1238 12.4722 6.12281 12.4722 6.12231 12.4722C6.16765 13.3541 6.2135 14.236 6.25885 15.1183C6.26383 15.217 6.27081 15.3156 6.27081 15.4148C6.26981 15.7325 6.03859 15.9809 5.73611 15.9918C5.42216 16.0032 5.17151 15.7702 5.15357 15.442C5.1147 14.7327 5.07982 14.0233 5.04394 13.3139C4.98464 12.1421 4.92534 10.9702 4.86653 9.79838C4.86155 9.69974 4.85408 9.6006 4.85607 9.50195C4.86205 9.19709 5.09576 8.95469 5.39127 8.94329Z" fill="#B0AADD" fill-opacity="0.4"/>
</g>
<defs>
<clipPath id="clip0_1059_18311">
<rect width="15" height="19" fill="white"/>
</clipPath>
</defs>
</svg>
