<svg width="18" height="13" viewBox="0 0 18 13" fill="none" xmlns="http://www.w3.org/2000/svg">
<path d="M15.2378 1.07763C14.0905 0.578841 12.8602 0.211357 11.5739 0.00088291C11.5505 -0.00317917 11.5271 0.00697218 11.515 0.0272754C11.3568 0.293919 11.1815 0.641778 11.0588 0.915194C9.6753 0.718936 8.29889 0.718936 6.94374 0.915194C6.82099 0.635701 6.63936 0.293919 6.48043 0.0272754C6.46836 0.0076496 6.44496 -0.00250175 6.42154 0.00088291C5.13593 0.210684 3.90567 0.578169 2.7577 1.07763C2.74776 1.08169 2.73924 1.08846 2.73359 1.09725C0.400044 4.40058 -0.239213 7.62272 0.0743851 10.8049C0.075804 10.8205 0.0850274 10.8354 0.0977985 10.8448C1.63741 11.9161 3.12878 12.5665 4.59246 12.9976C4.61588 13.0044 4.6407 12.9963 4.65561 12.978C5.00184 12.53 5.31048 12.0576 5.57511 11.5608C5.59072 11.5318 5.57582 11.4972 5.5439 11.4857C5.05435 11.3098 4.5882 11.0952 4.1398 10.8516C4.10433 10.832 4.10149 10.7839 4.13412 10.7609C4.22848 10.6939 4.32286 10.6242 4.41297 10.5538C4.42927 10.5409 4.45198 10.5382 4.47115 10.5464C7.41696 11.8207 10.6062 11.8207 13.5172 10.5464C13.5364 10.5376 13.5591 10.5403 13.5761 10.5531C13.6662 10.6235 13.7606 10.6939 13.8557 10.7609C13.8883 10.7839 13.8862 10.832 13.8507 10.8516C13.4023 11.1 12.9361 11.3098 12.4459 11.4851C12.414 11.4966 12.3998 11.5318 12.4154 11.5608C12.6857 12.0569 12.9943 12.5293 13.3342 12.9773C13.3484 12.9963 13.3739 13.0044 13.3973 12.9976C14.8681 12.5665 16.3595 11.9161 17.8991 10.8448C17.9126 10.8354 17.9211 10.8211 17.9225 10.8056C18.2978 7.12662 17.2939 3.93091 15.2612 1.09793C15.2562 1.08846 15.2477 1.08169 15.2378 1.07763ZM6.01502 8.86728C5.12812 8.86728 4.39735 8.09578 4.39735 7.14829C4.39735 6.2008 5.11395 5.42929 6.01502 5.42929C6.92315 5.42929 7.64686 6.20757 7.63266 7.14829C7.63266 8.09578 6.91606 8.86728 6.01502 8.86728ZM11.9961 8.86728C11.1092 8.86728 10.3784 8.09578 10.3784 7.14829C10.3784 6.2008 11.095 5.42929 11.9961 5.42929C12.9042 5.42929 13.6279 6.20757 13.6137 7.14829C13.6137 8.09578 12.9042 8.86728 11.9961 8.86728Z" fill="#B0AADD" fill-opacity="0.5"/>
</svg>
