<svg width="25" height="19" viewBox="0 0 25 19" fill="none" xmlns="http://www.w3.org/2000/svg">
<path d="M21.1636 1.69182C19.5701 0.974516 17.8614 0.44604 16.0749 0.14336C16.0424 0.137518 16.0099 0.152116 15.9931 0.181314C15.7733 0.564773 15.5299 1.06503 15.3595 1.45822C13.4379 1.17599 11.5262 1.17599 9.64408 1.45822C9.47359 1.05629 9.22134 0.564773 9.0006 0.181314C8.98384 0.153091 8.95134 0.138492 8.9188 0.14336C7.13324 0.445073 5.42454 0.973549 3.83014 1.69182C3.81634 1.69766 3.80451 1.7074 3.79666 1.72004C0.555616 6.47053 -0.33224 11.1042 0.103313 15.6805C0.105283 15.7029 0.118094 15.7243 0.135831 15.7379C2.27418 17.2786 4.34553 18.2139 6.37842 18.8339C6.41095 18.8436 6.44542 18.8319 6.46613 18.8056C6.94701 18.1614 7.37567 17.482 7.7432 16.7676C7.76489 16.7258 7.74419 16.6762 7.69986 16.6596C7.01993 16.4066 6.3725 16.098 5.74972 15.7477C5.70046 15.7194 5.69651 15.6503 5.74183 15.6172C5.87289 15.5209 6.00398 15.4206 6.12912 15.3194C6.15176 15.3009 6.18331 15.297 6.20993 15.3087C10.3013 17.1414 14.7308 17.1414 18.7739 15.3087C18.8005 15.2961 18.8321 15.3 18.8557 15.3184C18.9809 15.4197 19.1119 15.5209 19.244 15.6172C19.2893 15.6503 19.2863 15.7194 19.2371 15.7477C18.6143 16.1048 17.9669 16.4066 17.2859 16.6586C17.2416 16.6752 17.2219 16.7258 17.2436 16.7676C17.619 17.481 18.0477 18.1604 18.5197 18.8047C18.5394 18.8319 18.5749 18.8436 18.6074 18.8339C20.6501 18.2139 22.7215 17.2786 24.8598 15.7379C24.8786 15.7243 24.8904 15.7039 24.8924 15.6815C25.4136 10.3908 24.0193 5.79509 21.1961 1.72101C21.1892 1.7074 21.1774 1.69766 21.1636 1.69182ZM8.35419 12.894C7.12239 12.894 6.10743 11.7845 6.10743 10.422C6.10743 9.0594 7.10271 7.9499 8.35419 7.9499C9.61549 7.9499 10.6206 9.06914 10.6009 10.422C10.6009 11.7845 9.60563 12.894 8.35419 12.894ZM16.6612 12.894C15.4294 12.894 14.4145 11.7845 14.4145 10.422C14.4145 9.0594 15.4097 7.9499 16.6612 7.9499C17.9225 7.9499 18.9276 9.06914 18.908 10.422C18.908 11.7845 17.9225 12.894 16.6612 12.894Z" fill="white"/>
</svg>
