<svg width="19" height="14" viewBox="0 0 19 14" fill="none" xmlns="http://www.w3.org/2000/svg">
<path d="M16.0843 1.24664C14.8733 0.718103 13.5747 0.3287 12.2169 0.105672C12.1922 0.101368 12.1675 0.112124 12.1548 0.133639C11.9877 0.416187 11.8027 0.784794 11.6732 1.07452C10.2128 0.866554 8.75994 0.866554 7.3295 1.07452C7.19993 0.778354 7.00822 0.416187 6.84046 0.133639C6.82772 0.112842 6.80302 0.102085 6.77829 0.105672C5.42126 0.327987 4.12265 0.71739 2.91091 1.24664C2.90042 1.25094 2.89143 1.25812 2.88546 1.26744C0.422268 4.76779 -0.252502 8.18212 0.0785176 11.5541C0.0800154 11.5706 0.0897511 11.5864 0.103232 11.5964C1.72837 12.7316 3.3026 13.4208 4.8476 13.8776C4.87232 13.8848 4.89852 13.8762 4.91426 13.8568C5.27973 13.3821 5.60551 12.8815 5.88484 12.3551C5.90132 12.3243 5.88558 12.2877 5.85189 12.2755C5.33515 12.0891 4.8431 11.8617 4.36979 11.6036C4.33235 11.5828 4.32935 11.5319 4.36379 11.5075C4.46339 11.4365 4.56302 11.3626 4.65813 11.288C4.67534 11.2744 4.69932 11.2715 4.71955 11.2801C7.82902 12.6305 11.1954 12.6305 14.2682 11.2801C14.2884 11.2708 14.3124 11.2737 14.3303 11.2873C14.4255 11.3619 14.5251 11.4365 14.6254 11.5075C14.6599 11.5319 14.6576 11.5828 14.6202 11.6036C14.1469 11.8668 13.6548 12.0891 13.1373 12.2748C13.1036 12.287 13.0886 12.3243 13.1051 12.3551C13.3905 12.8808 13.7162 13.3814 14.075 13.8561C14.0899 13.8762 14.1169 13.8848 14.1416 13.8776C15.6941 13.4208 17.2683 12.7316 18.8935 11.5964C18.9077 11.5864 18.9167 11.5713 18.9182 11.5548C19.3144 7.65643 18.2546 4.27011 16.109 1.26815C16.1038 1.25812 16.0948 1.25094 16.0843 1.24664ZM6.34918 9.50091C5.41302 9.50091 4.64165 8.68339 4.64165 7.67939C4.64165 6.67538 5.39806 5.85786 6.34918 5.85786C7.30777 5.85786 8.07168 6.68256 8.0567 7.67939C8.0567 8.68339 7.30028 9.50091 6.34918 9.50091ZM12.6625 9.50091C11.7264 9.50091 10.955 8.68339 10.955 7.67939C10.955 6.67538 11.7114 5.85786 12.6625 5.85786C13.6211 5.85786 14.385 6.68256 14.37 7.67939C14.37 8.68339 13.6211 9.50091 12.6625 9.50091Z" fill="#6700EB"/>
</svg>
