<svg width="17" height="16" viewBox="0 0 17 16" fill="none" xmlns="http://www.w3.org/2000/svg">
<path d="M1.30426 10.451L2.03151 10.2677L1.30426 10.451ZM1.30426 5.54903L0.577002 5.36572L1.30426 5.54903ZM15.6957 5.54903L16.423 5.36573L15.6957 5.54903ZM15.6957 10.451L16.423 10.6343L15.6957 10.451ZM10.9597 14.7347L10.7997 14.002L10.9597 14.7347ZM6.04034 14.7347L6.2003 14.002L6.04034 14.7347ZM6.04034 1.26526L5.88038 0.532516L5.88038 0.532516L6.04034 1.26526ZM10.9597 1.26526L10.7997 1.998V1.998L10.9597 1.26526ZM5.68202 14.6565L5.52206 15.3893H5.52206L5.68202 14.6565ZM11.318 14.6565L11.4779 15.3893L11.318 14.6565ZM11.318 1.34348L11.4779 0.610737V0.610737L11.318 1.34348ZM5.68202 1.34348L5.84198 2.07622L5.68202 1.34348ZM2.85452 3.10922C2.51579 2.87081 2.04793 2.95213 1.80952 3.29085C1.57111 3.62957 1.65243 4.09743 1.99115 4.33584L2.85452 3.10922ZM6.98616 6.93447L6.55448 7.54778L6.98616 6.93447ZM10.0138 6.93447L10.4455 7.54779L10.0138 6.93447ZM15.0088 4.33584C15.3476 4.09743 15.4289 3.62957 15.1905 3.29085C14.9521 2.95213 14.4842 2.87081 14.1455 3.10922L15.0088 4.33584ZM5.84198 2.07622L6.2003 1.998L5.88038 0.532516L5.52206 0.610738L5.84198 2.07622ZM10.7997 1.998L11.158 2.07622L11.4779 0.610737L11.1196 0.532516L10.7997 1.998ZM11.158 13.9238L10.7997 14.002L11.1196 15.4675L11.4779 15.3893L11.158 13.9238ZM6.2003 14.002L5.84198 13.9238L5.52206 15.3893L5.88038 15.4675L6.2003 14.002ZM2.03151 10.2677C1.65616 8.77846 1.65616 7.22154 2.03151 5.73233L0.577002 5.36572C0.140999 7.09558 0.140999 8.90443 0.577002 10.6343L2.03151 10.2677ZM14.9685 5.73233C15.3438 7.22154 15.3438 8.77846 14.9685 10.2677L16.423 10.6343C16.859 8.90442 16.859 7.09558 16.423 5.36573L14.9685 5.73233ZM10.7997 14.002C9.28497 14.3327 7.71503 14.3327 6.2003 14.002L5.88038 15.4675C7.60591 15.8442 9.39409 15.8442 11.1196 15.4675L10.7997 14.002ZM6.2003 1.998C7.71503 1.66733 9.28497 1.66733 10.7997 1.998L11.1196 0.532517C9.39409 0.155828 7.60591 0.155828 5.88038 0.532516L6.2003 1.998ZM5.84198 13.9238C3.96435 13.5139 2.49184 12.094 2.03151 10.2677L0.577002 10.6343C1.17876 13.0218 3.09778 14.86 5.52206 15.3893L5.84198 13.9238ZM11.4779 15.3893C13.9022 14.86 15.8212 13.0218 16.423 10.6343L14.9685 10.2677C14.5082 12.094 13.0357 13.5139 11.158 13.9238L11.4779 15.3893ZM11.158 2.07622C13.0357 2.48612 14.5082 3.90597 14.9685 5.73233L16.423 5.36573C15.8212 2.97822 13.9022 1.13996 11.4779 0.610737L11.158 2.07622ZM5.52206 0.610738C3.09778 1.13996 1.17876 2.97822 0.577002 5.36572L2.03151 5.73233C2.49184 3.90597 3.96435 2.48612 5.84198 2.07622L5.52206 0.610738ZM1.99115 4.33584L6.55448 7.54778L7.41785 6.32116L2.85452 3.10922L1.99115 4.33584ZM10.4455 7.54779L15.0088 4.33584L14.1455 3.10922L9.58215 6.32116L10.4455 7.54779ZM6.55448 7.54778C7.71899 8.36744 9.281 8.36744 10.4455 7.54779L9.58215 6.32116C8.93551 6.77631 8.06449 6.77631 7.41785 6.32116L6.55448 7.54778Z" fill="#8F87CA" fill-opacity="0.3"/>
</svg>
