<svg width="18" height="15" viewBox="0 0 18 15" fill="none" xmlns="http://www.w3.org/2000/svg">
<path fill-rule="evenodd" clip-rule="evenodd" d="M0.937994 4.29347C4.55608 -1.43116 13.4439 -1.43116 17.062 4.29347C18.3127 6.2723 18.3127 8.7277 17.062 10.7065C13.4439 16.4312 4.55608 16.4312 0.937994 10.7065C-0.312665 8.7277 -0.312664 6.2723 0.937994 4.29347ZM6.36532 7.5514C6.36532 6.18132 7.54457 5.07204 8.99949 5.07204C10.4547 5.07204 11.6347 6.18156 11.6347 7.5514C11.6347 8.92016 10.4548 10.0298 8.99949 10.0298C7.54444 10.0298 6.36532 8.9204 6.36532 7.5514ZM8.99949 3.91075C6.86264 3.91075 5.13103 5.54019 5.13103 7.5514C5.13103 9.56176 6.86276 11.1911 8.99949 11.1911C11.136 11.1911 12.869 9.562 12.869 7.5514C12.869 5.53995 11.1361 3.91075 8.99949 3.91075Z" fill="#B0AADD" fill-opacity="0.3"/>
</svg>
