<svg width="18" height="18" viewBox="0 0 18 18" fill="none" xmlns="http://www.w3.org/2000/svg">
<path d="M14.76 14.8105H17M2.49333 9L1 9.03914M2.49333 9C2.49333 10.1782 3.44846 11.1333 4.62666 11.1333C5.80487 11.1333 6.76 10.1782 6.76 9C6.76 7.82179 5.80487 6.86667 4.62666 6.86667C3.44846 6.86667 2.49333 7.82179 2.49333 9ZM7.37243 9.03921H17M9.71196 3.26777L1 3.26777M17 3.26777H14.76M1 14.8105H9.71196M14.2267 14.8667C14.2267 16.0449 13.2715 17 12.0933 17C10.9151 17 9.96 16.0449 9.96 14.8667C9.96 13.6885 10.9151 12.7333 12.0933 12.7333C13.2715 12.7333 14.2267 13.6885 14.2267 14.8667ZM14.2267 3.13333C14.2267 4.31154 13.2715 5.26667 12.0933 5.26667C10.9151 5.26667 9.96 4.31154 9.96 3.13333C9.96 1.95513 10.9151 1 12.0933 1C13.2715 1 14.2267 1.95513 14.2267 3.13333Z" stroke="white" stroke-width="1.5" stroke-linecap="round"/>
</svg>
