<svg width="15" height="15" viewBox="0 0 15 15" fill="none" xmlns="http://www.w3.org/2000/svg">
<g clip-path="url(#clip0_886:8441)">
<path d="M4.92409 0C5.15696 0.102273 5.35575 0.232955 5.42958 0.5C5.5375 0.892045 5.27055 1.3125 4.86729 1.34659C4.60035 1.36932 4.32205 1.36364 4.04942 1.36364C3.49282 1.36364 2.93621 1.36364 2.33984 1.36364C2.40232 1.43182 2.4364 1.47159 2.47616 1.50568C3.8336 2.86364 5.19672 4.22727 6.55416 5.58523C6.74158 5.77273 6.85518 5.98295 6.80406 6.25C6.71319 6.75568 6.11114 6.98295 5.71357 6.65909C5.65677 6.61364 5.60565 6.5625 5.55453 6.51136C4.20845 5.17045 2.86237 3.82386 1.51629 2.47727C1.47653 2.4375 1.45382 2.39205 1.41974 2.35227C1.4027 2.35795 1.39134 2.36364 1.3743 2.36932C1.36862 2.42045 1.36862 2.46591 1.36862 2.51705C1.36862 3.24432 1.36862 3.97159 1.36862 4.69886C1.36862 5.02273 1.24935 5.27273 0.942645 5.40341C0.51099 5.58523 0.0338983 5.27841 0.00549996 4.80114C-0.00585938 4.63068 -0.000179708 4.46023 -0.000179708 4.28977C-0.000179708 3.14773 0.0111796 2.00568 -0.00585938 0.863636C-0.00585938 0.431818 0.136132 0.136364 0.562107 0C2.0161 0 3.4701 0 4.92409 0Z" fill="white"/>
<path d="M15.0002 4.92059C14.898 5.15922 14.7617 5.35809 14.4834 5.43195C14.0971 5.52854 13.6939 5.26718 13.6484 4.86945C13.6314 4.72741 13.6371 4.58536 13.6371 4.44332C13.6371 3.80127 13.6371 3.16491 13.6371 2.52286C13.6371 2.47172 13.6371 2.42059 13.6371 2.33536C13.5689 2.39786 13.5292 2.43195 13.4951 2.46604C12.1377 3.824 10.7745 5.18763 9.4171 6.54559C9.22967 6.73309 9.0252 6.84672 8.75258 6.79559C8.24141 6.70468 8.01422 6.10241 8.34364 5.699C8.38908 5.64786 8.43452 5.59672 8.48563 5.55127C9.83171 4.199 11.1835 2.85241 12.5296 1.50013C12.5636 1.46604 12.5977 1.42627 12.6659 1.35809C12.5807 1.35809 12.5296 1.35809 12.4784 1.35809C11.7628 1.35809 11.0415 1.35809 10.3258 1.35809C10.11 1.35809 9.91123 1.31263 9.7522 1.15354C9.4171 0.818315 9.51933 0.244451 9.95667 0.0512695C10.0021 0.0342241 10.0419 0.0114968 10.0873 -0.0112305C11.5413 -0.0112305 12.9953 -0.0112305 14.4493 -0.0112305C14.7333 0.0739968 14.9207 0.261497 15.0059 0.545588C15.0002 2.0115 15.0002 3.46604 15.0002 4.92059Z" fill="white"/>
<path d="M14.9999 14.4433C14.909 14.7104 14.7614 14.9149 14.4717 14.9774C14.4035 14.9945 14.3354 15.0001 14.2672 15.0001C12.9325 15.0001 11.6035 15.0001 10.2687 15.0001C9.96203 15.0001 9.72916 14.8751 9.60421 14.5854C9.49062 14.3183 9.53605 14.0683 9.72916 13.8524C9.88252 13.682 10.087 13.6365 10.3142 13.6365C11.0298 13.6365 11.7511 13.6365 12.4668 13.6365C12.5179 13.6365 12.569 13.6365 12.6201 13.6365C12.6372 13.6138 12.6542 13.5911 12.6712 13.5683C12.6201 13.5399 12.5576 13.5229 12.5179 13.4831C11.1604 12.1308 9.803 10.7729 8.44556 9.41492C8.25245 9.22174 8.13885 9.01151 8.18997 8.7331C8.28085 8.2331 8.87721 8.01151 9.27479 8.32401C9.33159 8.36946 9.3827 8.4206 9.43382 8.47174C10.7856 9.82401 12.1317 11.1706 13.4834 12.5229C13.5175 12.557 13.5573 12.5967 13.6254 12.6592C13.6254 12.574 13.6254 12.5229 13.6254 12.4717C13.6254 11.7558 13.6254 11.0342 13.6254 10.3183C13.6254 10.1024 13.6652 9.90355 13.8242 9.73878C14.1593 9.40355 14.733 9.50583 14.9261 9.94333C14.9431 9.98878 14.9658 10.0286 14.9885 10.074C14.9999 11.5342 14.9999 12.9888 14.9999 14.4433Z" fill="white"/>
<path d="M2.3402 13.6361C2.43108 13.6361 2.48787 13.6361 2.53899 13.6361C3.25463 13.6361 3.97595 13.6361 4.69158 13.6361C4.96421 13.6361 5.19139 13.7157 5.34475 13.9486C5.62305 14.3748 5.35043 14.9373 4.84494 14.9941C4.78814 14.9998 4.72566 14.9998 4.66887 14.9998C3.3739 14.9998 2.08462 14.9998 0.789653 14.9998C0.272804 14.9998 0.00585938 14.7327 0.00585938 14.2157C0.00585938 12.9032 0.00585938 11.5907 0.00585938 10.2782C0.00585938 9.82931 0.318241 9.52818 0.744216 9.55659C1.05092 9.57363 1.31786 9.82363 1.35762 10.1305C1.36898 10.21 1.36898 10.2952 1.36898 10.3805C1.36898 11.0793 1.36898 11.7782 1.36898 12.477C1.36898 12.5282 1.36898 12.585 1.36898 12.6759C1.43714 12.6134 1.47689 12.5736 1.51665 12.5395C2.87409 11.1816 4.23153 9.82931 5.58329 8.46568C5.7764 8.2725 5.98655 8.15886 6.26485 8.21C6.77034 8.3009 6.99185 8.90318 6.66811 9.3009C6.62267 9.35204 6.57723 9.40318 6.52612 9.44863C5.17436 10.8009 3.82827 12.1475 2.47651 13.4998C2.44244 13.5282 2.40836 13.568 2.3402 13.6361Z" fill="white"/>
</g>
<defs>
<clipPath id="clip0_886:8441">
<rect width="15" height="15" fill="white"/>
</clipPath>
</defs>
</svg>
