<svg width="23" height="23" viewBox="0 0 23 23" fill="none" xmlns="http://www.w3.org/2000/svg">
<path fill-rule="evenodd" clip-rule="evenodd" d="M7.70468 0.439171C10.201 -0.14639 12.799 -0.14639 15.2953 0.43917C18.9004 1.2848 21.7152 4.09964 22.5608 7.70468C23.1464 10.201 23.1464 12.799 22.5608 15.2953C21.7152 18.9004 18.9004 21.7152 15.2953 22.5608C12.799 23.1464 10.201 23.1464 7.70468 22.5608C4.09964 21.7152 1.2848 18.9004 0.439172 15.2953C-0.146391 12.799 -0.146391 10.201 0.439172 7.70467C1.2848 4.09964 4.09964 1.2848 7.70468 0.439171ZM11.5 9.05357C12.1755 9.05357 12.7232 8.50592 12.7232 7.83037C12.7232 7.15482 12.1755 6.60717 11.5 6.60717C10.8244 6.60717 10.2768 7.15482 10.2768 7.83037C10.2768 8.50592 10.8244 9.05357 11.5 9.05357ZM11.5 9.97097C12.0066 9.97097 12.4174 10.3817 12.4174 10.8884V15.7812C12.4174 16.2878 12.0066 16.6986 11.5 16.6986C10.9933 16.6986 10.5826 16.2878 10.5826 15.7812V10.8884C10.5826 10.3817 10.9933 9.97097 11.5 9.97097Z" fill="white"/>
</svg>
