<svg width="16" height="16" viewBox="0 0 16 16" fill="none" xmlns="http://www.w3.org/2000/svg">
<g clip-path="url(#clip0_644:5928)">
<path d="M0 11.8345C0 9.23311 0 6.63176 0 4.03041C0.00774212 3.98008 0.0193553 3.92976 0.0270974 3.87944C0.0851633 3.59685 0.120003 3.30652 0.209037 3.03555C0.820665 1.19292 2.4349 0.0161183 4.36656 0.00837617C6.73952 0.000634045 9.11248 0.00450511 11.4854 0.00837617C12.2364 0.00837617 12.9526 0.174832 13.6029 0.554196C15.0778 1.41744 15.8404 2.71425 15.8481 4.42526C15.8636 6.76725 15.8559 9.10924 15.8481 11.4512C15.8481 11.7454 15.8326 12.0435 15.7668 12.3261C15.372 14.1029 14.292 15.241 12.5384 15.7326C12.3061 15.7984 12.0622 15.8217 11.8261 15.8642C9.22474 15.8642 6.62338 15.8642 4.02203 15.8642C3.85945 15.8371 3.69686 15.8217 3.53815 15.7868C1.76133 15.3765 0.623241 14.3003 0.131616 12.5429C0.065808 12.3145 0.0425817 12.0706 0 11.8345ZM12.2751 7.92857C12.2713 5.53238 10.3357 3.59685 7.93567 3.58524C5.54723 3.57362 3.58073 5.54012 3.5846 7.93244C3.58847 10.3286 5.524 12.2642 7.92406 12.2758C10.3125 12.2874 12.279 10.3209 12.2751 7.92857ZM13.8545 3.31426C13.8468 2.5865 13.2506 1.99423 12.5306 2.00584C11.8029 2.01359 11.2028 2.61747 11.2145 3.32975C11.2261 4.05363 11.8338 4.65365 12.5422 4.64204C13.27 4.63429 13.8623 4.03428 13.8545 3.31426Z" fill="#6700EB" fill-opacity="1"/>
<path d="M10.9035 7.92807C10.9035 9.56942 9.56605 10.9068 7.92469 10.9034C6.28333 10.9001 4.95605 9.56942 4.95605 7.93144C4.95605 6.29009 6.29346 4.95268 7.93482 4.95606C9.5728 4.95944 10.9001 6.29009 10.9035 7.92807Z" fill="#6700EB" fill-opacity="1"/>
<path d="M12.9178 3.32106C12.9178 3.5301 12.7436 3.70816 12.5346 3.70816C12.3294 3.70816 12.1514 3.52235 12.1514 3.32106C12.1552 3.11976 12.3256 2.94944 12.5269 2.94557C12.7436 2.93782 12.9178 3.10815 12.9178 3.32106Z" fill="#6700EB" fill-opacity="1"/>
</g>
<defs>
<clipPath id="clip0_644:5928">
<rect width="15.8597" height="15.8597" fill="white"/>
</clipPath>
</defs>
</svg>
