<svg width="16" height="16" viewBox="0 0 16 16" fill="none" xmlns="http://www.w3.org/2000/svg">
<g clip-path="url(#clip0_631:2396)">
<path d="M0 11.8347C0 9.23336 0 6.632 0 4.03065C0.00774212 3.98033 0.0193553 3.93 0.0270974 3.87968C0.0851633 3.59709 0.120003 3.30676 0.209037 3.03579C0.820665 1.19316 2.4349 0.0163624 4.36656 0.00862031C6.73952 0.000878186 9.11248 0.00474925 11.4854 0.00862031C12.2364 0.00862031 12.9526 0.175076 13.6029 0.55444C15.0778 1.41769 15.8404 2.71449 15.8481 4.4255C15.8636 6.76749 15.8559 9.10948 15.8481 11.4515C15.8481 11.7457 15.8326 12.0437 15.7668 12.3263C15.372 14.1032 14.292 15.2412 12.5384 15.7329C12.3061 15.7987 12.0622 15.8219 11.8261 15.8645C9.22474 15.8645 6.62338 15.8645 4.02203 15.8645C3.85945 15.8374 3.69686 15.8219 3.53815 15.7871C1.76133 15.3767 0.623241 14.3006 0.131616 12.5431C0.065808 12.3147 0.0425817 12.0708 0 11.8347ZM12.2751 7.92881C12.2713 5.53262 10.3357 3.59709 7.93567 3.58548C5.54723 3.57387 3.58073 5.54036 3.5846 7.93268C3.58847 10.3289 5.524 12.2644 7.92406 12.276C10.3125 12.2876 12.279 10.3211 12.2751 7.92881ZM13.8545 3.31451C13.8468 2.58675 13.2506 1.99447 12.5306 2.00609C11.8029 2.01383 11.2028 2.61771 11.2145 3.32999C11.2261 4.05388 11.8338 4.65389 12.5422 4.64228C13.27 4.63454 13.8623 4.03452 13.8545 3.31451Z" fill="#B0AADD" fill-opacity="0.5"/>
<path d="M10.9035 7.92807C10.9035 9.56942 9.56605 10.9068 7.92469 10.9034C6.28333 10.9001 4.95605 9.56942 4.95605 7.93144C4.95605 6.29009 6.29346 4.95268 7.93482 4.95606C9.5728 4.95944 10.9001 6.29009 10.9035 7.92807Z" fill="#B0AADD" fill-opacity="0.5"/>
<path d="M12.9178 3.3213C12.9178 3.53034 12.7436 3.70841 12.5346 3.70841C12.3294 3.70841 12.1514 3.5226 12.1514 3.3213C12.1552 3.12001 12.3256 2.94968 12.5269 2.94581C12.7436 2.93807 12.9178 3.10839 12.9178 3.3213Z" fill="#B0AADD" fill-opacity="0.5"/>
</g>
<defs>
<clipPath id="clip0_631:2396">
<rect width="15.8597" height="15.8597" fill="white"/>
</clipPath>
</defs>
</svg>
