<svg width="16" height="25" viewBox="0 0 16 25" fill="none" xmlns="http://www.w3.org/2000/svg">
<path d="M2.12507 24.4869C1.73174 24.3032 1.60265 23.9887 1.62023 23.5598C1.64386 22.9706 1.64023 22.379 1.62326 21.7891C1.58508 20.4313 1.71235 20.3017 3.06083 20.3447C3.45294 20.357 3.84628 20.3465 4.28567 20.3465C4.22446 20.1376 4.18143 19.9484 4.11415 19.7684C3.62325 18.4554 2.39295 17.5756 1.00932 17.5412C0.526295 17.5289 0.260842 17.2488 0.26569 16.7554C0.289326 14.1571 2.4075 12.0049 4.97112 11.976C5.20506 11.9736 5.4396 11.9754 5.70869 11.9754C5.70869 11.7573 5.71536 11.5466 5.70384 11.3359C5.70142 11.2873 5.64566 11.2332 5.60202 11.1964C4.99779 10.6809 4.599 10.0401 4.42385 9.25613C4.40749 9.18363 4.33173 9.1013 4.26264 9.06812C3.41658 8.6657 2.97658 7.99724 2.99113 7.04923C3.00264 6.30766 2.97234 5.5538 3.09234 4.82758C3.49234 2.40442 5.86869 0.659539 8.27231 0.96735C10.4456 1.24567 12.0984 2.79087 12.4371 4.98548C12.5632 5.80078 12.5317 6.65417 12.4699 7.48176C12.4147 8.22026 11.9493 8.73697 11.2796 9.03986C11.1559 9.09577 11.0941 9.16274 11.0638 9.29852C10.9074 10.0081 10.559 10.6103 10.0184 11.0852C9.84745 11.2351 9.75897 11.3838 9.7923 11.6117C9.80806 11.7223 9.79533 11.8372 9.79533 11.9539C10.2287 11.9748 10.6438 11.973 11.0541 12.0178C13.0693 12.2384 14.7965 13.8831 15.1486 15.9106C15.1971 16.1889 15.2262 16.4728 15.2365 16.7548C15.2541 17.2475 14.9795 17.5289 14.4965 17.5406C12.9747 17.5787 11.648 18.6484 11.2753 20.1395C11.2608 20.1979 11.2523 20.2581 11.2353 20.3459C11.6038 20.3459 11.9565 20.3459 12.3087 20.3459C12.5656 20.3459 12.8232 20.3453 13.0802 20.3459C13.6226 20.3465 13.8796 20.6107 13.8802 21.1674C13.8808 21.9649 13.8644 22.7623 13.8868 23.5586C13.8983 23.9868 13.7735 24.3014 13.3814 24.4857C9.62806 24.4869 5.87657 24.4869 2.12507 24.4869ZM5.68202 20.3355C7.0705 20.3355 8.4517 20.3355 9.82261 20.3355C10.2844 18.0856 11.6026 16.702 13.8038 16.2018C13.6299 14.8342 12.3899 13.587 10.9978 13.407C10.5208 13.3455 10.0311 13.3412 9.54988 13.3621C8.64382 13.4021 8.37413 13.1342 8.43231 12.2341C8.43898 12.1321 8.43292 12.0301 8.43292 11.9275C8.17716 11.9453 7.95898 11.9724 7.7408 11.9724C7.52444 11.9724 7.30868 11.9441 7.07171 11.9269C7.07171 12.0461 7.06565 12.1524 7.07292 12.2574C7.13111 13.1188 6.85899 13.4137 5.97778 13.3584C5.67657 13.3394 5.37293 13.3541 5.07051 13.356C4.02809 13.3603 3.15961 13.7621 2.47295 14.5522C2.06204 15.0247 1.79841 15.5746 1.69356 16.1988C3.91173 16.7112 5.22081 18.0942 5.68202 20.3355ZM5.85536 6.45634C5.52142 6.45634 5.27172 6.4502 5.02203 6.45757C4.64809 6.46924 4.35779 6.76354 4.3487 7.12849C4.34021 7.48361 4.60748 7.78896 4.96566 7.83258C5.50384 7.89832 5.68505 8.09431 5.71293 8.64358C5.76687 9.69542 6.63899 10.5617 7.67656 10.593C8.81291 10.6275 9.74624 9.74334 9.7923 8.58951C9.81048 8.14039 10.0475 7.87067 10.4553 7.83565C10.8796 7.7994 11.1559 7.52538 11.1547 7.14262C11.1535 6.76046 10.879 6.49197 10.4505 6.4545C10.105 6.42439 9.85897 6.19829 9.79897 5.85669C9.75049 5.58267 9.70261 5.55195 9.45958 5.6693C8.29231 6.23454 7.06141 6.48767 5.85536 6.45634ZM12.5068 21.7431C9.32564 21.7431 6.16323 21.7431 3.00567 21.7431C3.00567 22.2063 3.00567 22.653 3.00567 23.0953C6.18141 23.0953 9.33897 23.0953 12.5068 23.0953C12.5068 22.6425 12.5068 22.2008 12.5068 21.7431ZM11.0674 5.18823C11.0808 3.82674 9.45836 2.37554 7.91474 2.31779C5.8996 2.24222 4.56991 3.84025 4.43354 5.10959C4.88687 5.09853 5.34506 5.09239 5.80202 5.07457C6.19414 5.05921 6.58808 5.04999 6.97717 5.0033C7.67292 4.92036 8.32625 4.68504 8.96079 4.38706C9.73715 4.02211 10.5444 4.28876 10.9729 5.0334C10.9978 5.07641 11.0244 5.11758 11.0674 5.18823Z" fill="#B0AADD" fill-opacity="0.75"/>
</svg>
