<svg width="122" height="80" viewBox="0 0 122 80" fill="none" xmlns="http://www.w3.org/2000/svg">
<rect y="42" width="38" height="38" rx="4" fill="white"/>
<path d="M21.3898 64.154H17.6068L16.9568 66H15.4098L18.6468 56.952H20.3628L23.5998 66H22.0398L21.3898 64.154ZM20.9738 62.945L19.5048 58.746L18.0228 62.945H20.9738Z" fill="black"/>
<rect x="42" width="38" height="38" rx="4" fill="white"/>
<rect x="42" y="42" width="38" height="38" rx="4" fill="white"/>
<rect x="84" y="42" width="38" height="38" rx="4" fill="white"/>
<path d="M61.0291 66.091C60.4225 66.091 59.8765 65.987 59.3911 65.779C58.9058 65.5623 58.5245 65.259 58.2471 64.869C57.9698 64.479 57.8311 64.024 57.8311 63.504H59.4171C59.4518 63.894 59.6035 64.2147 59.8721 64.466C60.1495 64.7173 60.5351 64.843 61.0291 64.843C61.5405 64.843 61.9391 64.7217 62.2251 64.479C62.5111 64.2277 62.6541 63.907 62.6541 63.517C62.6541 63.2137 62.5631 62.9667 62.3811 62.776C62.2078 62.5853 61.9868 62.438 61.7181 62.334C61.4581 62.23 61.0941 62.1173 60.6261 61.996C60.0368 61.84 59.5558 61.684 59.1831 61.528C58.8191 61.3633 58.5071 61.112 58.2471 60.774C57.9871 60.436 57.8571 59.9853 57.8571 59.422C57.8571 58.902 57.9871 58.447 58.2471 58.057C58.5071 57.667 58.8711 57.368 59.3391 57.16C59.8071 56.952 60.3488 56.848 60.9641 56.848C61.8395 56.848 62.5545 57.069 63.1091 57.511C63.6725 57.9443 63.9845 58.5423 64.0451 59.305H62.4071C62.3811 58.9757 62.2251 58.694 61.9391 58.46C61.6531 58.226 61.2761 58.109 60.8081 58.109C60.3835 58.109 60.0368 58.2173 59.7681 58.434C59.4995 58.6507 59.3651 58.9627 59.3651 59.37C59.3651 59.6473 59.4475 59.877 59.6121 60.059C59.7855 60.2323 60.0021 60.371 60.2621 60.475C60.5221 60.579 60.8775 60.6917 61.3281 60.813C61.9261 60.9777 62.4115 61.1423 62.7841 61.307C63.1655 61.4717 63.4861 61.7273 63.7461 62.074C64.0148 62.412 64.1491 62.867 64.1491 63.439C64.1491 63.8983 64.0235 64.3317 63.7721 64.739C63.5295 65.1463 63.1698 65.4757 62.6931 65.727C62.2251 65.9697 61.6705 66.091 61.0291 66.091Z" fill="black"/>
<path d="M102.318 56.965C103.28 56.965 104.12 57.1513 104.84 57.524C105.568 57.888 106.127 58.4167 106.517 59.11C106.915 59.7947 107.115 60.5963 107.115 61.515C107.115 62.4337 106.915 63.231 106.517 63.907C106.127 64.583 105.568 65.103 104.84 65.467C104.12 65.8223 103.28 66 102.318 66H99.3666V56.965H102.318ZM102.318 64.791C103.375 64.791 104.185 64.505 104.749 63.933C105.312 63.361 105.594 62.555 105.594 61.515C105.594 60.4663 105.312 59.6473 104.749 59.058C104.185 58.4687 103.375 58.174 102.318 58.174H100.849V64.791H102.318Z" fill="black"/>
<path d="M67.2463 14.965L64.5683 24H62.8913L60.9933 17.162L58.9783 24L57.3143 24.013L54.7533 14.965H56.3263L58.1983 22.323L60.2263 14.965H61.8903L63.7753 22.284L65.6603 14.965H67.2463Z" fill="black"/>
</svg>
