<svg width="16" height="18" viewBox="0 0 16 18" fill="none" xmlns="http://www.w3.org/2000/svg">
<path d="M1.58053 13.4678L0.885822 13.7505H0.885822L1.58053 13.4678ZM1.27208 8.46411L1.99605 8.65998L1.27208 8.46411ZM14.9501 8.4641L14.2262 8.65997L14.9501 8.4641ZM14.6417 13.4678L15.3364 13.7505V13.7505L14.6417 13.4678ZM9.92129 16.8594L9.8054 16.1184L9.92129 16.8594ZM6.3009 16.8594L6.18501 17.6004L6.3009 16.8594ZM5.13884 5.09079L4.98937 4.35583H4.98937L5.13884 5.09079ZM11.0834 5.09079L11.2329 4.35583L11.0834 5.09079ZM5.63537 16.7553L5.75126 16.0143L5.63537 16.7553ZM1.6631 13.6708L2.35781 13.3881L2.35781 13.3881L1.6631 13.6708ZM10.5868 16.7553L10.7027 17.4963L10.5868 16.7553ZM14.5591 13.6708L13.8644 13.3882L13.8644 13.3882L14.5591 13.6708ZM11.3288 5.1407L11.1794 5.87566H11.1794L11.3288 5.1407ZM4.89341 5.1407L5.04288 5.87565H5.04288L4.89341 5.1407ZM3.48909 4.93831C3.48909 5.35252 3.82487 5.68831 4.23909 5.68831C4.6533 5.68831 4.98909 5.35252 4.98909 4.93831H3.48909ZM4.23909 4.66908L3.48909 4.66908V4.66908H4.23909ZM11.9831 4.66908L11.2331 4.66908V4.66908H11.9831ZM11.2331 4.93831C11.2331 5.35252 11.5689 5.68831 11.9831 5.68831C12.3973 5.68831 12.7331 5.35252 12.7331 4.93831H11.2331ZM7.0904 1.12557L6.9084 0.397984V0.397984L7.0904 1.12557ZM9.13176 1.12557L9.31377 0.397984L9.13176 1.12557ZM5.04288 5.87565L5.28831 5.82574L4.98937 4.35583L4.74394 4.40575L5.04288 5.87565ZM10.9339 5.82574L11.1794 5.87566L11.4783 4.40575L11.2329 4.35583L10.9339 5.82574ZM10.4709 16.0143L9.8054 16.1184L10.0372 17.6004L10.7027 17.4963L10.4709 16.0143ZM6.4168 16.1184L5.75126 16.0143L5.51948 17.4963L6.18501 17.6004L6.4168 16.1184ZM13.947 13.1852L13.8644 13.3882L15.2538 13.9534L15.3364 13.7505L13.947 13.1852ZM2.35781 13.3881L2.27524 13.1852L0.885822 13.7505L0.968389 13.9534L2.35781 13.3881ZM2.27524 13.1852C1.68796 11.7417 1.59062 10.1586 1.99605 8.65998L0.54811 8.26824C0.0566947 10.0846 0.17525 12.0039 0.885822 13.7505L2.27524 13.1852ZM14.2262 8.65997C14.6316 10.1586 14.5343 11.7417 13.947 13.1852L15.3364 13.7505C16.047 12.0039 16.1655 10.0846 15.6741 8.26823L14.2262 8.65997ZM9.8054 16.1184C8.68329 16.2939 7.5389 16.2939 6.4168 16.1184L6.18501 17.6004C7.46071 17.7999 8.76149 17.7999 10.0372 17.6004L9.8054 16.1184ZM5.28831 5.82574C7.14947 5.44723 9.07276 5.44723 10.9339 5.82574L11.2329 4.35583C9.17443 3.9372 7.0478 3.9372 4.98937 4.35583L5.28831 5.82574ZM5.75126 16.0143C4.20169 15.7719 2.91786 14.7648 2.35781 13.3881L0.968389 13.9534C1.73496 15.8376 3.47174 17.176 5.51948 17.4963L5.75126 16.0143ZM10.7027 17.4963C12.7505 17.176 14.4872 15.8376 15.2538 13.9534L13.8644 13.3882C13.3043 14.7648 12.0205 15.7719 10.4709 16.0143L10.7027 17.4963ZM11.1794 5.87566C12.6794 6.18073 13.8498 7.2688 14.2262 8.65997L15.6741 8.26823C15.1428 6.30434 13.5087 4.81869 11.4783 4.40575L11.1794 5.87566ZM4.74394 4.40575C2.7135 4.81869 1.07944 6.30434 0.54811 8.26824L1.99605 8.65998C2.37243 7.2688 3.54281 6.18073 5.04288 5.87565L4.74394 4.40575ZM4.98909 4.93831V4.66908H3.48909V4.93831H4.98909ZM11.2331 4.66908V4.93831H12.7331V4.66908H11.2331ZM7.27241 1.85315C7.82221 1.71562 8.39996 1.71562 8.94976 1.85315L9.31377 0.397984C8.52498 0.200672 7.69719 0.200672 6.9084 0.397984L7.27241 1.85315ZM12.7331 4.66908C12.7331 2.63955 11.3086 0.896981 9.31377 0.397984L8.94976 1.85315C10.3135 2.19429 11.2331 3.36481 11.2331 4.66908L12.7331 4.66908ZM4.98909 4.66908C4.98909 3.36481 5.90863 2.19429 7.27241 1.85315L6.9084 0.397984C4.91358 0.896981 3.48909 2.63955 3.48909 4.66908L4.98909 4.66908Z" fill="#8F87CA" fill-opacity="0.3"/>
</svg>
