<svg width="16" height="16" viewBox="0 0 16 16" fill="none" xmlns="http://www.w3.org/2000/svg">
<path d="M1.24557 9.38526L1.97575 9.21399L1.24557 9.38526ZM1.24557 5.14089L1.97575 5.31216L1.24557 5.14089ZM13.2806 5.14089L14.0108 4.96961L13.2806 5.14089ZM13.2806 9.38526L14.0108 9.55654L13.2806 9.38526ZM9.38526 13.2806L9.21398 12.5504L9.38526 13.2806ZM5.14089 13.2806L4.96961 14.0108L5.14089 13.2806ZM5.14089 1.24557L4.96961 0.515385L5.14089 1.24557ZM9.38526 1.24557L9.55654 0.515385L9.38526 1.24557ZM14.4697 15.5303C14.7626 15.8232 15.2374 15.8232 15.5303 15.5303C15.8232 15.2374 15.8232 14.7626 15.5303 14.4697L14.4697 15.5303ZM1.97575 9.21399C1.67475 7.93079 1.67475 6.59536 1.97575 5.31216L0.515386 4.96961C0.161538 6.47811 0.161538 8.04804 0.515386 9.55654L1.97575 9.21399ZM12.5504 5.31217C12.8514 6.59536 12.8514 7.93079 12.5504 9.21398L14.0108 9.55654C14.3646 8.04804 14.3646 6.47812 14.0108 4.96961L12.5504 5.31217ZM9.21398 12.5504C7.93079 12.8514 6.59536 12.8514 5.31217 12.5504L4.96961 14.0108C6.47812 14.3646 8.04803 14.3646 9.55654 14.0108L9.21398 12.5504ZM5.31217 1.97575C6.59536 1.67475 7.93079 1.67475 9.21398 1.97575L9.55654 0.515385C8.04804 0.161538 6.47812 0.161539 4.96961 0.515385L5.31217 1.97575ZM5.31217 12.5504C3.65669 12.1621 2.36407 10.8695 1.97575 9.21399L0.515386 9.55654C1.03381 11.7667 2.75949 13.4923 4.96961 14.0108L5.31217 12.5504ZM9.55654 14.0108C11.7667 13.4923 13.4923 11.7667 14.0108 9.55654L12.5504 9.21398C12.1621 10.8695 10.8695 12.1621 9.21398 12.5504L9.55654 14.0108ZM9.21398 1.97575C10.8695 2.36407 12.1621 3.65668 12.5504 5.31217L14.0108 4.96961C13.4923 2.75949 11.7667 1.03381 9.55654 0.515385L9.21398 1.97575ZM4.96961 0.515385C2.75949 1.03381 1.03381 2.75949 0.515386 4.96961L1.97575 5.31216C2.36407 3.65668 3.65669 2.36407 5.31217 1.97575L4.96961 0.515385ZM11.6192 12.6799L14.4697 15.5303L15.5303 14.4697L12.6799 11.6192L11.6192 12.6799Z" fill="white"/>
</svg>
