<svg width="24" height="22" viewBox="0 0 24 22" fill="none" xmlns="http://www.w3.org/2000/svg">
<path d="M23.4499 6.81386C23.3278 6.97779 23.2234 7.15966 23.0812 7.30318C19.9413 10.4834 16.7977 13.6593 13.6534 16.834C13.5893 16.899 13.5082 16.946 13.4349 17.0011C13.4471 17.0289 13.4593 17.0567 13.4715 17.0846C13.5552 17.0846 13.6388 17.0833 13.7218 17.0846C14.306 17.0951 14.892 17.045 15.467 17.22C16.9063 17.6568 17.9007 18.9583 17.9391 20.4758C17.9513 20.9632 17.6711 21.2595 17.1865 21.2595C13.5625 21.2608 9.93787 21.2608 6.31387 21.2595C5.83165 21.2595 5.55208 20.9607 5.56551 20.4708C5.61556 18.6045 7.09642 17.1192 8.94229 17.087C9.30427 17.0809 9.66624 17.0864 10.0282 17.0864C10.0539 17.0512 10.0801 17.0159 10.1057 16.9806C10.0258 16.9367 9.92994 16.9095 9.86829 16.847C6.70148 13.6525 3.53712 10.4537 0.372756 7.25554C0.313546 7.19554 0.251284 7.13739 0.20062 7.07058C-0.111299 6.65859 0.109669 6.06844 0.612647 5.97442C0.723741 5.95338 0.839719 5.95153 0.953255 5.95153C2.84919 5.95029 4.74512 5.95029 6.64105 5.95029C6.73139 5.95029 6.82112 5.95029 6.94137 5.95029C6.94137 5.84451 6.94137 5.76223 6.94137 5.67934C6.94137 4.9234 6.94809 4.16685 6.93832 3.41092C6.93344 3.03418 7.08909 2.79417 7.42359 2.62776C8.73353 1.97513 10.0386 1.3126 11.3394 0.643274C11.6238 0.496664 11.8784 0.494809 12.1622 0.640181C13.4648 1.30828 14.7699 1.9708 16.0792 2.62405C16.421 2.79478 16.5736 3.04532 16.5675 3.43009C16.5553 4.1786 16.5639 4.92712 16.5639 5.67563C16.5639 5.75852 16.5639 5.84142 16.5639 5.95091C16.6811 5.95091 16.7702 5.95091 16.8599 5.95091C18.7632 5.95091 20.667 5.95648 22.5703 5.94658C22.9909 5.9441 23.2936 6.08143 23.4499 6.49157C23.4499 6.59797 23.4499 6.70623 23.4499 6.81386ZM2.46402 7.34834C2.4805 7.33844 2.49698 7.32854 2.51346 7.31864C5.59542 10.4704 8.67738 13.6222 11.7746 16.7889C14.8608 13.6346 17.9391 10.4878 21.0101 7.34895C21.0199 7.35205 20.9997 7.34091 20.979 7.34091C19.5628 7.33968 18.146 7.34091 16.7299 7.33658C16.5968 7.33596 16.5602 7.38978 16.5626 7.51536C16.5681 7.83951 16.5614 8.16366 16.5651 8.48781C16.5681 8.80639 16.4302 9.03404 16.1512 9.17508C14.798 9.86049 13.4441 10.5459 12.0908 11.2313C11.8637 11.3464 11.6391 11.3445 11.412 11.2295C10.0593 10.5434 8.70607 9.85864 7.3534 9.17322C7.0836 9.03651 6.94137 8.81753 6.94259 8.50761C6.94381 8.19892 6.93161 7.88962 6.94626 7.58155C6.95541 7.3904 6.89742 7.33287 6.70514 7.33349C5.35736 7.34153 4.00958 7.33782 2.66179 7.33844C2.59526 7.33906 2.52933 7.34524 2.46402 7.34834ZM7.05613 19.859C10.1961 19.859 13.3104 19.859 16.4308 19.859C16.4253 19.8231 16.4247 19.8002 16.4174 19.7792C16.4052 19.7427 16.3905 19.7068 16.3734 19.6728C15.9791 18.8971 15.3553 18.4801 14.4909 18.4764C12.6646 18.4684 10.8376 18.4727 9.01127 18.4764C8.84524 18.477 8.67432 18.4913 8.5144 18.5333C7.81243 18.7177 7.33142 19.1563 7.05613 19.859ZM11.0433 9.48933C11.0555 9.44541 11.0659 9.425 11.0659 9.40458C11.0671 8.25645 11.0702 7.10894 11.061 5.9608C11.0604 5.88843 10.9786 5.78636 10.9084 5.74986C10.2541 5.40777 9.59421 5.0762 8.93558 4.74277C8.74086 4.64379 8.54431 4.54853 8.33494 4.4446C8.32456 4.49533 8.31357 4.52317 8.31357 4.55162C8.31235 5.69171 8.3093 6.83242 8.31907 7.97251C8.31968 8.04489 8.40391 8.14572 8.47533 8.18345C8.91177 8.41605 9.35615 8.63442 9.79748 8.85773C10.2095 9.06682 10.6221 9.27591 11.0433 9.48933ZM12.4381 9.49181C12.4967 9.46892 12.5248 9.46087 12.5504 9.44788C13.3861 9.02476 14.2199 8.59792 15.0586 8.1816C15.1923 8.11541 15.1947 8.02014 15.1947 7.90075C15.1929 6.82191 15.1941 5.74306 15.1929 4.66421C15.1929 4.59864 15.1837 4.53368 15.177 4.43904C14.2785 4.89495 13.4032 5.33663 12.5315 5.78574C12.4857 5.80925 12.4424 5.89029 12.4424 5.9441C12.4369 7.11512 12.4381 8.28614 12.4381 9.49181ZM9.18157 3.294C9.22247 3.32555 9.23712 3.34101 9.25482 3.35029C10.049 3.75362 10.8419 4.15943 11.6409 4.55348C11.7123 4.58874 11.8344 4.57389 11.9107 4.53616C12.6749 4.15757 13.4349 3.7697 14.1949 3.38246C14.2339 3.36266 14.2663 3.32864 14.3182 3.28843C13.4831 2.8653 12.6768 2.45269 11.8649 2.0506C11.7984 2.01781 11.6867 2.02833 11.6171 2.06235C11.1715 2.27825 10.732 2.5059 10.2907 2.73045C9.92627 2.91479 9.56186 3.10037 9.18157 3.294Z" fill="#B0AADD" fill-opacity="0.75"/>
</svg>
