<svg width="31" height="30" viewBox="0 0 31 30" fill="none" xmlns="http://www.w3.org/2000/svg">
<path d="M29.1385 1L17.313 9.75001L19.5121 4.59334L29.1385 1Z" fill="#E17726" stroke="#E17726" stroke-width="0.25" stroke-linecap="round" stroke-linejoin="round"/>
<path d="M1.86157 1L13.5818 9.83167L11.4881 4.59334L1.86157 1Z" fill="#E27625" stroke="#E27625" stroke-width="0.25" stroke-linecap="round" stroke-linejoin="round"/>
<path d="M24.8806 21.2882L21.7342 26.0949L28.4715 27.9499L30.4015 21.3933L24.8806 21.2882Z" fill="#E27625" stroke="#E27625" stroke-width="0.25" stroke-linecap="round" stroke-linejoin="round"/>
<path d="M0.609924 21.3933L2.52819 27.9499L9.25386 26.0949L6.1191 21.2882L0.609924 21.3933Z" fill="#E27625" stroke="#E27625" stroke-width="0.25" stroke-linecap="round" stroke-linejoin="round"/>
<path d="M8.89117 13.1683L7.01971 15.9917L13.6869 16.295L13.4647 9.12L8.89117 13.1683Z" fill="#E27625" stroke="#E27625" stroke-width="0.25" stroke-linecap="round" stroke-linejoin="round"/>
<path d="M22.1084 13.1684L17.4649 9.03845L17.3128 16.2951L23.9799 15.9918L22.1084 13.1684Z" fill="#E27625" stroke="#E27625" stroke-width="0.25" stroke-linecap="round" stroke-linejoin="round"/>
<path d="M9.25397 26.0949L13.2893 24.1466L9.81543 21.4399L9.25397 26.0949Z" fill="#E27625" stroke="#E27625" stroke-width="0.25" stroke-linecap="round" stroke-linejoin="round"/>
<path d="M17.7107 24.1466L21.7343 26.0949L21.1846 21.4399L17.7107 24.1466Z" fill="#E27625" stroke="#E27625" stroke-width="0.25" stroke-linecap="round" stroke-linejoin="round"/>
<path d="M21.7343 26.0951L17.7107 24.1469L18.0382 26.7602L18.003 27.8685L21.7343 26.0951Z" fill="#D5BFB2" stroke="#D5BFB2" stroke-width="0.25" stroke-linecap="round" stroke-linejoin="round"/>
<path d="M9.25397 26.0951L12.997 27.8685L12.9736 26.7602L13.2893 24.1469L9.25397 26.0951Z" fill="#D5BFB2" stroke="#D5BFB2" stroke-width="0.25" stroke-linecap="round" stroke-linejoin="round"/>
<path d="M13.067 19.7134L9.72168 18.7335L12.0844 17.6484L13.067 19.7134Z" fill="#233447" stroke="#233447" stroke-width="0.25" stroke-linecap="round" stroke-linejoin="round"/>
<path d="M17.9329 19.7134L18.9155 17.6484L21.2899 18.7335L17.9329 19.7134Z" fill="#233447" stroke="#233447" stroke-width="0.25" stroke-linecap="round" stroke-linejoin="round"/>
<path d="M9.25385 26.0949L9.83873 21.2882L6.11914 21.3933L9.25385 26.0949Z" fill="#CC6228" stroke="#CC6228" stroke-width="0.25" stroke-linecap="round" stroke-linejoin="round"/>
<path d="M21.1611 21.2882L21.7343 26.0949L24.8807 21.3933L21.1611 21.2882Z" fill="#CC6228" stroke="#CC6228" stroke-width="0.25" stroke-linecap="round" stroke-linejoin="round"/>
<path d="M23.9799 15.9917L17.3128 16.295L17.9327 19.7134L18.9153 17.6484L21.2897 18.7334L23.9799 15.9917Z" fill="#CC6228" stroke="#CC6228" stroke-width="0.25" stroke-linecap="round" stroke-linejoin="round"/>
<path d="M9.72166 18.7334L12.0844 17.6484L13.067 19.7134L13.6869 16.295L7.01971 15.9917L9.72166 18.7334Z" fill="#CC6228" stroke="#CC6228" stroke-width="0.25" stroke-linecap="round" stroke-linejoin="round"/>
<path d="M7.01996 15.9917L9.81551 21.4401L9.72187 18.7334L7.01996 15.9917Z" fill="#E27525" stroke="#E27525" stroke-width="0.25" stroke-linecap="round" stroke-linejoin="round"/>
<path d="M21.2899 18.7334L21.1846 21.4401L23.9802 15.9917L21.2899 18.7334Z" fill="#E27525" stroke="#E27525" stroke-width="0.25" stroke-linecap="round" stroke-linejoin="round"/>
<path d="M13.6873 16.295L13.0673 19.7135L13.8509 23.7501L14.0264 18.4301L13.6873 16.295Z" fill="#E27525" stroke="#E27525" stroke-width="0.25" stroke-linecap="round" stroke-linejoin="round"/>
<path d="M17.3131 16.295L16.9855 18.4185L17.1493 23.7501L17.933 19.7135L17.3131 16.295Z" fill="#E27525" stroke="#E27525" stroke-width="0.25" stroke-linecap="round" stroke-linejoin="round"/>
<path d="M17.933 19.7134L17.1493 23.75L17.7108 24.1467L21.1847 21.4401L21.29 18.7334L17.933 19.7134Z" fill="#F5841F" stroke="#F5841F" stroke-width="0.25" stroke-linecap="round" stroke-linejoin="round"/>
<path d="M9.72168 18.7334L9.81532 21.4401L13.2892 24.1467L13.8507 23.75L13.067 19.7134L9.72168 18.7334Z" fill="#F5841F" stroke="#F5841F" stroke-width="0.25" stroke-linecap="round" stroke-linejoin="round"/>
<path d="M18.0032 27.8683L18.0382 26.76L17.7341 26.5033H13.266L12.9736 26.76L12.997 27.8683L9.25397 26.095L10.564 27.1683L13.2192 29H17.7692L20.436 27.1683L21.7344 26.095L18.0032 27.8683Z" fill="#C0AC9D" stroke="#C0AC9D" stroke-width="0.25" stroke-linecap="round" stroke-linejoin="round"/>
<path d="M17.7106 24.1466L17.1492 23.75H13.8507L13.2893 24.1466L12.9734 26.76L13.2659 26.5033H17.734L18.0382 26.76L17.7106 24.1466Z" fill="#161616" stroke="#161616" stroke-width="0.25" stroke-linecap="round" stroke-linejoin="round"/>
<path d="M29.6413 10.3217L30.6356 5.49167L29.1384 1L17.7107 9.45838L22.1086 13.1683L28.3196 14.9767L29.6882 13.3784L29.0917 12.9467L30.039 12.0834L29.3139 11.5234L30.2613 10.8L29.6413 10.3217Z" fill="#763E1A" stroke="#763E1A" stroke-width="0.25" stroke-linecap="round" stroke-linejoin="round"/>
<path d="M0.36438 5.49167L1.3703 10.3217L0.726984 10.8L1.68611 11.5234L0.960916 12.0834L1.90835 12.9467L1.31182 13.3784L2.68034 14.9767L8.89137 13.1683L13.2893 9.45838L1.86157 1L0.36438 5.49167Z" fill="#763E1A" stroke="#763E1A" stroke-width="0.25" stroke-linecap="round" stroke-linejoin="round"/>
<path d="M28.3197 14.9766L22.1087 13.1683L23.9802 15.9917L21.1846 21.44L24.8808 21.3933H30.4017L28.3197 14.9766Z" fill="#F5841F" stroke="#F5841F" stroke-width="0.25" stroke-linecap="round" stroke-linejoin="round"/>
<path d="M8.8912 13.1683L2.68025 14.9766L0.609924 21.3933H6.1191L9.81524 21.44L7.01975 15.9917L8.8912 13.1683Z" fill="#F5841F" stroke="#F5841F" stroke-width="0.25" stroke-linecap="round" stroke-linejoin="round"/>
<path d="M17.3129 16.2951L17.7106 9.45835L19.5119 4.59338H11.4879L13.2892 9.45835L13.6869 16.2951L13.8389 18.4417L13.8507 23.7501H17.1491L17.1608 18.4417L17.3129 16.2951Z" fill="#F5841F" stroke="#F5841F" stroke-width="0.25" stroke-linecap="round" stroke-linejoin="round"/>
</svg>
