<svg width="67" height="57" viewBox="0 0 67 57" fill="none" xmlns="http://www.w3.org/2000/svg">
<g clip-path="url(#clip0_886:8603)">
<path d="M16.4538 0C17.1666 0 17.5942 0.425122 17.7368 1.13366C18.0219 2.97585 19.0197 3.8261 21.4431 3.9678C22.8686 4.10951 24.4366 3.9678 26.0047 4.10951C27.4302 4.25122 28.8557 4.25122 30.2812 4.67634C33.1322 5.38488 34.5576 7.65219 34.4151 10.7698H31.9918C31.9918 10.4863 31.9918 10.2029 31.9918 9.91951C31.8492 8.50244 30.8514 7.22707 29.4259 6.94366C28.2855 6.80195 27.1451 6.66024 26.1472 6.66024C24.1515 6.51854 22.1558 6.51854 20.3027 6.23512C17.4517 5.95171 15.3134 3.68439 15.1709 0.850244C15.1709 0.425122 15.456 0 16.0262 0H16.4538Z" fill="#23262F" fill-opacity="0.6"/>
<path d="M28.2856 10.77C28.2856 12.0454 28.1431 13.3208 28.1431 14.5961C28.1431 17.8554 28.1431 21.2564 28.1431 24.5156C28.2856 26.6412 29.1409 28.3417 31.1366 29.4754L31.2792 29.6171C32.1345 29.7588 32.1345 30.3256 32.1345 31.0342C32.1345 33.4432 32.1345 35.8522 32.1345 38.2612C32.1345 38.403 32.1345 38.5447 32.1345 38.8281C32.1345 39.3949 32.5621 39.82 32.9898 39.82C33.56 39.82 33.8451 39.3949 33.8451 38.8281C33.8451 38.2612 33.8451 37.6944 33.8451 37.1276C33.8451 34.8603 33.8451 32.7347 33.8451 30.4673C33.8451 30.1839 33.8451 30.0422 34.1302 29.9005C35.9833 29.192 37.1237 27.7749 37.5514 25.9327C37.6939 25.2242 37.8365 24.3739 37.8365 23.5237C37.8365 20.1227 37.8365 16.8634 37.8365 13.4625C37.8365 12.6122 37.6939 11.762 37.5514 10.77C38.4067 11.0534 39.262 11.3368 39.9747 11.762C44.9639 14.171 48.1 18.1388 49.2404 23.5237C49.383 24.5156 49.5255 25.5076 49.5255 26.6412C49.5255 31.1759 49.5255 35.7105 49.5255 40.2451C49.5255 45.9134 47.2447 50.5898 42.5406 53.849C39.9747 55.6912 36.9812 56.5415 33.8451 56.6832C30.2813 56.8249 26.8601 56.2581 23.724 54.2742C19.4476 51.5817 17.0242 47.7556 16.1689 42.7959C16.0264 42.0873 16.0264 41.3788 16.0264 40.5286C16.0264 35.4271 16.0264 30.4673 16.0264 25.3659C16.1689 21.3981 17.737 17.9971 20.4454 15.1629C22.7262 13.179 25.1495 11.762 28.0005 10.9117C28.0005 10.9117 28.1431 10.9117 28.2856 10.77C28.2856 10.9117 28.2856 10.77 28.2856 10.77Z" fill="#23262F" fill-opacity="0.6"/>
<path d="M35.5556 18.7055C35.5556 19.8392 35.2705 21.1145 34.5578 22.3899C33.7025 23.807 32.277 23.807 31.4217 22.3899C29.9962 19.8392 29.9962 17.1467 31.4217 14.596C32.277 13.1789 33.5599 13.1789 34.5578 14.596C35.2705 15.588 35.5556 16.8633 35.5556 18.7055Z" fill="#23262F" fill-opacity="0.6"/>
</g>
<path d="M60.8321 28.3414L65.5557 33.065L60.8321 37.7886" stroke="#23262F" stroke-opacity="0.6" stroke-width="1.4" stroke-linecap="round" stroke-linejoin="round"/>
<path d="M5.72358 37.7885L1 33.0649L5.72358 28.3413" stroke="#23262F" stroke-opacity="0.6" stroke-width="1.4" stroke-linecap="round" stroke-linejoin="round"/>
<defs>
<clipPath id="clip0_886:8603">
<rect width="34.6396" height="56.6829" fill="white" transform="translate(15.1709)"/>
</clipPath>
</defs>
</svg>
