<svg width="66" height="57" viewBox="0 0 66 57" fill="none" xmlns="http://www.w3.org/2000/svg">
<g clip-path="url(#clip0_737:5838)">
<path d="M16.176 0C16.8888 0 17.3164 0.425122 17.459 1.13366C17.7441 2.97585 18.7419 3.8261 21.1653 3.9678C22.5907 4.10951 24.1588 3.9678 25.7268 4.10951C27.1523 4.25122 28.5778 4.25122 30.0033 4.67634C32.8543 5.38488 34.2798 7.65219 34.1373 10.7698H31.7139C31.7139 10.4863 31.7139 10.2029 31.7139 9.91951C31.5714 8.50244 30.5735 7.22707 29.148 6.94366C28.0076 6.80195 26.8672 6.66024 25.8694 6.66024C23.8737 6.51854 21.878 6.51854 20.0249 6.23512C17.1739 5.95171 15.0356 3.68439 14.8931 0.850244C14.8931 0.425122 15.1782 0 15.7484 0H16.176Z" fill="white"/>
<path d="M28.0078 10.7698C28.0078 12.0451 27.8653 13.3205 27.8653 14.5959C27.8653 17.8551 27.8653 21.2561 27.8653 24.5154C28.0078 26.641 28.8631 28.3415 30.8588 29.4751L31.0013 29.6168C31.8566 29.7586 31.8566 30.3254 31.8566 31.0339C31.8566 33.4429 31.8566 35.852 31.8566 38.261C31.8566 38.4027 31.8566 38.5444 31.8566 38.8278C31.8566 39.3947 32.2843 39.8198 32.7119 39.8198C33.2821 39.8198 33.5672 39.3947 33.5672 38.8278C33.5672 38.261 33.5672 37.6942 33.5672 37.1273C33.5672 34.86 33.5672 32.7344 33.5672 30.4671C33.5672 30.1837 33.5672 30.042 33.8523 29.9003C35.7055 29.1917 36.8459 27.7747 37.2735 25.9325C37.4161 25.2239 37.5586 24.3737 37.5586 23.5234C37.5586 20.1225 37.5586 16.8632 37.5586 13.4622C37.5586 12.612 37.4161 11.7617 37.2735 10.7698C38.1288 11.0532 38.9841 11.3366 39.6969 11.7617C44.6861 14.1708 47.8222 18.1386 48.9626 23.5234C49.1052 24.5154 49.2477 25.5073 49.2477 26.641C49.2477 31.1756 49.2477 35.7103 49.2477 40.2449C49.2477 45.9132 46.9669 50.5895 42.2628 53.8488C39.6969 55.691 36.7033 56.5412 33.5672 56.683C30.0035 56.8247 26.5823 56.2578 23.4462 54.2739C19.1697 51.5815 16.7464 47.7554 15.8911 42.7956C15.7485 42.0871 15.7485 41.3786 15.7485 40.5283C15.7485 35.4269 15.7485 30.4671 15.7485 25.3656C15.8911 21.3978 17.4591 17.9968 20.1676 15.1627C22.4484 13.1788 24.8717 11.7617 27.7227 10.9115C27.7227 10.9115 27.8653 10.9115 28.0078 10.7698C28.0078 10.7698 28.0078 10.9115 28.0078 10.7698Z" fill="white"/>
<path d="M35.2778 18.7053C35.2778 19.8389 34.9927 21.1143 34.2799 22.3897C33.4246 23.8067 31.9991 23.8067 31.1438 22.3897C29.7183 19.8389 29.7183 17.1465 31.1438 14.5958C31.9991 13.1787 33.2821 13.1787 34.2799 14.5958C34.9927 15.5877 35.2778 16.8631 35.2778 18.7053Z" fill="white"/>
</g>
<path d="M60.5543 28.3417L65.2778 33.0652L60.5543 37.7888" stroke="white" stroke-width="1.4" stroke-linecap="round" stroke-linejoin="round"/>
<path d="M5.44575 37.7885L0.722168 33.0649L5.44575 28.3413" stroke="white" stroke-width="1.4" stroke-linecap="round" stroke-linejoin="round"/>
<defs>
<clipPath id="clip0_737:5838">
<rect width="34.6396" height="56.6829" fill="white" transform="translate(14.8931)"/>
</clipPath>
</defs>
</svg>
