<svg width="24" height="25" viewBox="0 0 24 25" fill="none" xmlns="http://www.w3.org/2000/svg">
<path d="M23.5056 5.56135C23.5086 4.96255 23.0243 4.5545 22.3947 4.83106C19.3023 6.18854 16.1995 7.52256 13.0942 8.84856C12.6491 9.03869 12.4731 9.3171 12.4756 9.79984C12.4885 12.8185 12.4823 15.8366 12.4823 18.8553C12.4823 18.9355 12.4823 19.0158 12.4823 19.1244C12.3812 19.0738 12.315 19.0374 12.2469 19.0071C10.7957 18.3614 9.38258 18.4065 8.0712 19.3374C7.22698 19.9368 6.8107 20.7856 7.03447 21.8456C7.22514 22.7468 7.8186 23.3543 8.63155 23.7166C9.065 23.9099 9.54505 23.9963 10.0036 24.1315C10.2789 24.1315 10.5542 24.1315 10.8295 24.1315C11.1832 24.0426 11.548 23.9839 11.8895 23.8592C13.215 23.3759 13.8587 22.4332 13.8587 21.0196C13.8587 18.3633 13.8605 15.7063 13.8544 13.05C13.8538 12.8722 13.8979 12.784 14.0702 12.7105C16.6691 11.5969 19.2636 10.4733 21.86 9.35291C21.9397 9.31834 22.0225 9.29241 22.109 9.26031C22.109 11.1678 22.109 13.0513 22.109 14.9581C22.025 14.9174 21.9594 14.8828 21.8919 14.8526C20.442 14.2044 19.0319 14.2507 17.7138 15.1724C16.3031 16.1582 16.2399 17.9818 17.5464 19.1041C18.7002 20.0955 20.6296 20.264 22.0096 19.4831C22.9869 18.93 23.5086 18.1188 23.5031 16.9508C23.4841 13.1537 23.4859 9.35723 23.5056 5.56135ZM11.933 22.2863C11.4836 22.6141 10.968 22.7339 10.4316 22.7481C9.85956 22.7363 9.33047 22.6098 8.8725 22.2647C8.17971 21.7425 8.18217 20.9776 8.8725 20.4529C9.70139 19.8226 11.0949 19.8133 11.9342 20.4319C12.6595 20.9665 12.6614 21.7542 11.933 22.2863ZM21.5603 18.1342C21.109 18.459 20.5934 18.5775 20.0484 18.5886C19.4923 18.575 18.9712 18.4491 18.5181 18.112C17.8143 17.5873 17.8168 16.8132 18.5194 16.286C19.3476 15.665 20.724 15.6563 21.5627 16.2662C22.3002 16.8039 22.3015 17.6009 21.5603 18.1342ZM22.1096 7.60713C22.1059 7.6806 22.0017 7.77875 21.922 7.81332C20.3537 8.49731 18.7824 9.17389 17.211 9.85232C16.1939 10.2912 15.1768 10.7295 14.1597 11.1678C14.0696 11.2067 13.9789 11.2437 13.8581 11.2938C13.8581 10.8869 13.8501 10.5061 13.8661 10.1258C13.8685 10.0665 13.9703 9.98936 14.042 9.95788C15.5061 9.32081 16.9726 8.68867 18.4384 8.05654C19.5677 7.56948 20.697 7.08241 21.8263 6.59535C21.9158 6.55708 22.006 6.52066 22.1175 6.47436C22.1188 6.87129 22.1292 7.23983 22.1096 7.60713Z" fill="#B0AADD" fill-opacity="0.75"/>
<path d="M6.88309 3.25751C6.88309 3.17849 6.88309 3.09948 6.88309 2.95935C7.08111 3.20504 7.23806 3.39332 7.38704 3.58716C8.15217 4.58042 8.85415 5.61072 9.34584 6.77745C9.77377 7.79232 9.71369 8.73867 9.05217 9.62946C8.87377 9.86959 8.69291 10.1085 8.49794 10.3344C8.19386 10.6869 8.18282 11.1061 8.4863 11.3814C8.78609 11.653 9.21771 11.6339 9.49911 11.2808C9.86573 10.8203 10.2262 10.3474 10.5223 9.83996C10.9392 9.12634 11.1311 8.33741 10.9576 7.50959C10.854 7.01574 10.7339 6.51077 10.5199 6.05951C10.1717 5.32676 9.77561 4.61067 9.33542 3.92977C8.59114 2.77909 7.70032 1.74076 6.75495 0.751204C6.4901 0.474029 6.21973 0.400568 5.93097 0.52897C5.62136 0.666632 5.49323 0.919114 5.5061 1.25247C5.50855 1.3142 5.50671 1.37593 5.50671 1.43704C5.50671 4.44029 5.50671 7.44354 5.50671 10.4468C5.50671 10.5264 5.50671 10.6067 5.50671 10.7172C4.64533 10.2486 3.76556 10.0857 2.83674 10.2221C1.92937 10.3554 1.14279 10.724 0.543804 11.4468C0.257495 11.7919 0.116486 12.2024 0 12.6253C0 12.8407 0 13.0568 0 13.2722C0.0128747 13.2988 0.0331068 13.3241 0.0386245 13.3525C0.150206 13.9531 0.444487 14.4544 0.914109 14.8279C2.19668 15.8477 3.62271 15.9897 5.10024 15.3693C6.27552 14.876 6.90454 13.984 6.89289 12.637C6.86408 9.51093 6.88309 6.38422 6.88309 3.25751ZM4.94697 13.8834C4.49574 14.2081 3.98014 14.3266 3.43511 14.3377C2.87904 14.3242 2.35792 14.1982 1.90485 13.8605C1.20103 13.3358 1.2041 12.5617 1.90669 12.0345C2.73497 11.4135 4.11195 11.4049 4.95003 12.0154C5.68757 12.5531 5.6888 13.35 4.94697 13.8834Z" fill="#B0AADD" fill-opacity="0.75"/>
</svg>
