<svg width="23" height="23" viewBox="0 0 23 23" fill="none" xmlns="http://www.w3.org/2000/svg">
<path fill-rule="evenodd" clip-rule="evenodd" d="M0.43917 7.70468C-0.146391 10.201 -0.14639 12.799 0.439171 15.2953C1.2848 18.9004 4.09964 21.7152 7.70467 22.5608C10.201 23.1464 12.799 23.1464 15.2953 22.5608C18.9004 21.7152 21.7152 18.9004 22.5608 15.2953C23.1464 12.799 23.1464 10.201 22.5608 7.70468C21.7152 4.09964 18.9004 1.2848 15.2953 0.439169C12.799 -0.146391 10.201 -0.146389 7.70468 0.439169C4.09964 1.2848 1.2848 4.09964 0.43917 7.70468ZM12.4785 15.5978C12.4785 16.1045 12.0678 16.5152 11.5611 16.5152C11.0544 16.5152 10.6437 16.1045 10.6437 15.5978C10.6437 15.0911 11.0544 14.6804 11.5611 14.6804C12.0678 14.6804 12.4785 15.0911 12.4785 15.5978ZM9.78749 8.93135C9.78749 7.98558 10.5542 7.21887 11.5 7.21887C12.4457 7.21887 13.2124 7.98558 13.2124 8.93135V9.07975C13.2124 9.57329 13.0164 10.0466 12.6674 10.3956L10.981 12.082C10.6944 12.3686 10.6944 12.8333 10.981 13.1199C11.2676 13.4065 11.7323 13.4065 12.0189 13.1199L13.7053 11.4335C14.3296 10.8093 14.6803 9.96258 14.6803 9.07975V8.93135C14.6803 7.17491 13.2564 5.75104 11.5 5.75104C9.74353 5.75104 8.31965 7.17491 8.31965 8.93135V9.54295C8.31965 9.94829 8.64824 10.2769 9.05357 10.2769C9.4589 10.2769 9.78749 9.94829 9.78749 9.54295V8.93135Z" fill="white"/>
</svg>
