<svg width="16" height="16" viewBox="0 0 16 16" fill="none" xmlns="http://www.w3.org/2000/svg">
<path d="M1.4868 9.33579L2.46037 9.10742L1.4868 9.33579ZM1.4868 5.243L2.46037 5.47137L1.4868 5.243ZM13.092 5.243L14.0656 5.01463L13.092 5.243ZM13.092 9.33579L14.0656 9.56415L13.092 9.33579ZM9.33579 13.092L9.10742 12.1184L9.33579 13.092ZM5.243 13.092L5.01463 14.0656L5.243 13.092ZM5.243 1.4868L5.01463 0.513221L5.243 1.4868ZM9.33579 1.4868L9.56416 0.513221L9.33579 1.4868ZM14.0429 15.4571C14.4334 15.8476 15.0666 15.8476 15.4571 15.4571C15.8476 15.0666 15.8476 14.4334 15.4571 14.0429L14.0429 15.4571ZM2.46037 9.10742C2.17988 7.91163 2.17988 6.66716 2.46037 5.47137L0.513222 5.01463C0.162259 6.51083 0.162259 8.06796 0.513222 9.56416L2.46037 9.10742ZM12.1184 5.47137C12.3989 6.66716 12.3989 7.91163 12.1184 9.10742L14.0656 9.56415C14.4165 8.06795 14.4165 6.51083 14.0656 5.01463L12.1184 5.47137ZM9.10742 12.1184C7.91163 12.3989 6.66716 12.3989 5.47137 12.1184L5.01463 14.0656C6.51083 14.4165 8.06795 14.4165 9.56415 14.0656L9.10742 12.1184ZM5.47137 2.46037C6.66716 2.17988 7.91163 2.17988 9.10742 2.46037L9.56416 0.513221C8.06795 0.162259 6.51083 0.16226 5.01463 0.513221L5.47137 2.46037ZM5.47137 12.1184C3.97736 11.768 2.81082 10.6014 2.46037 9.10742L0.513222 9.56416C1.03714 11.7977 2.7811 13.5417 5.01463 14.0656L5.47137 12.1184ZM9.56415 14.0656C11.7977 13.5417 13.5417 11.7977 14.0656 9.56415L12.1184 9.10742C11.768 10.6014 10.6014 11.768 9.10742 12.1184L9.56415 14.0656ZM9.10742 2.46037C10.6014 2.81082 11.768 3.97736 12.1184 5.47137L14.0656 5.01463C13.5416 2.7811 11.7977 1.03714 9.56416 0.513221L9.10742 2.46037ZM5.01463 0.513221C2.7811 1.03714 1.03714 2.7811 0.513222 5.01463L2.46037 5.47137C2.81082 3.97736 3.97736 2.81082 5.47137 2.46037L5.01463 0.513221ZM11.2942 12.7085L14.0429 15.4571L15.4571 14.0429L12.7085 11.2942L11.2942 12.7085Z" fill="#9995C6" fill-opacity="0.8"/>
</svg>
