<svg width="14" height="16" viewBox="0 0 14 16" fill="none" xmlns="http://www.w3.org/2000/svg">
<path d="M11.1883 15.9969C10.9407 15.925 10.6841 15.8781 10.4484 15.7719C9.33861 15.272 8.73598 14.0691 8.95973 12.8131C8.97763 12.7131 8.95078 12.6756 8.87918 12.6319C7.39945 11.7508 5.91972 10.8698 4.44297 9.98243C4.35049 9.92619 4.29381 9.93244 4.21326 10.0074C3.43759 10.7198 2.33674 10.8635 1.4149 10.3823C0.490066 9.89807 -0.082733 8.87327 0.00975016 7.8016C0.102233 6.72994 0.630282 5.94884 1.57898 5.53954C2.52768 5.13025 3.41969 5.29897 4.21326 5.98633C4.27889 6.04257 4.32364 6.08631 4.41612 6.03007C5.93165 5.12088 7.45017 4.2148 8.95675 3.31498C8.94183 3.04628 8.912 2.79008 8.92095 2.53076C8.95675 1.28725 9.89948 0.199961 11.0749 0.0312439C11.1137 0.0249951 11.1495 0.0124976 11.1883 0C11.3673 0 11.5463 0 11.7253 0C11.7521 0.00937317 11.782 0.0218707 11.8088 0.0281195C12.8977 0.193712 13.7748 1.06854 13.9598 2.17458C14.1537 3.33372 13.6346 4.46475 12.6561 5.01777C11.6865 5.56454 10.4961 5.38957 9.69064 4.58348C9.65484 4.54911 9.61904 4.51474 9.58026 4.47725C8.04385 5.39582 6.5134 6.30814 4.98295 7.22359C5.12914 7.74849 5.12317 8.26401 4.98594 8.77641C6.52533 9.69498 8.05578 10.6073 9.60711 11.5352C9.64291 11.4853 9.66678 11.4384 9.70258 11.404C10.3052 10.8198 11.0152 10.5761 11.8267 10.6948C12.9902 10.8635 13.927 11.9164 13.9926 13.1068C14.0642 14.4472 13.3005 15.5813 12.1012 15.9094C11.9759 15.9438 11.8506 15.9688 11.7253 16C11.5463 15.9969 11.3673 15.9969 11.1883 15.9969Z" fill="#B0AADD" fill-opacity="0.5"/>
</svg>
