<svg width="48" height="46" viewBox="0 0 48 46" fill="none" xmlns="http://www.w3.org/2000/svg">
<path d="M23.9836 45.2416C21.7291 45.2416 19.4864 44.4153 17.7749 42.774L3.36269 28.9532C-0.0603505 25.6706 -0.0603505 20.328 3.36269 17.0454L17.7749 3.22463C21.1979 -0.0579485 26.7692 -0.0579485 30.1923 3.22463L44.6045 17.0454C48.0275 20.328 48.0275 25.6706 44.6045 28.9532L30.1923 42.774C28.4807 44.4153 26.2381 45.2416 23.9836 45.2416ZM23.9836 3.8585C22.5671 3.8585 21.1389 4.37919 20.053 5.42056L5.64079 19.23C3.48073 21.3014 3.48073 24.6859 5.64079 26.7573L20.053 40.5781C22.213 42.6495 25.7423 42.6495 27.9024 40.5781L42.3146 26.7573C44.4746 24.6859 44.4746 21.3014 42.3146 19.23L27.9142 5.40924C26.8282 4.37919 25.4 3.8585 23.9836 3.8585Z" fill="white"/>
<path d="M46.7881 1.14191C44.6634 -0.895555 40.544 -0.205081 34.5359 3.20201C33.6625 3.70005 32.7772 4.23205 31.8565 4.82065L34.1818 7.05054C34.8546 6.63173 35.5156 6.23556 36.1648 5.86202C40.0836 3.64346 42.3735 3.10013 43.5421 3.10013C44.0614 3.10013 44.3683 3.21333 44.4864 3.32652C44.8759 3.70005 45.1828 5.88466 41.8424 11.3066C41.4528 11.9291 41.0515 12.563 40.603 13.2082C40.0246 14.0571 39.399 14.9174 38.738 15.8003C37.9354 16.8643 37.0737 17.9396 36.1412 19.0376C33.8631 21.7316 31.2545 24.5161 28.4099 27.244C24.4084 31.0813 20.3008 34.477 16.4764 37.1484C15.5557 37.7936 14.6587 38.3935 13.7734 38.9368C13.1006 39.3556 12.4396 39.7518 11.7904 40.1253C6.13648 43.3287 3.85838 43.0457 3.46886 42.6608C3.06754 42.2873 2.77245 40.1027 6.11287 34.6808C6.49059 34.0582 6.90371 33.4243 7.35225 32.7791L5.02694 30.5493C4.42496 31.4208 3.85838 32.2811 3.33903 33.1074C-0.213856 38.8689 -0.933877 42.8193 1.19077 44.8568C1.98161 45.6151 3.05574 46 4.40135 46C6.65584 46 9.67755 44.936 13.4429 42.7967C14.3164 42.2986 15.2016 41.7666 16.1105 41.178C16.984 40.612 17.8811 40.0121 18.7899 39.3669C19.7932 38.6651 20.8083 37.9068 21.8353 37.1144C24.7626 34.8506 27.7607 32.2585 30.6998 29.44C34.6658 25.6254 38.2187 21.7089 41.0515 18.0189C41.7243 17.1473 42.3499 16.287 42.9401 15.4494C43.5539 14.5778 44.1086 13.7176 44.628 12.8913C48.1927 7.11846 48.9127 3.16805 46.7881 1.14191Z" fill="url(#paint0_linear)"/>
<defs>
<linearGradient id="paint0_linear" x1="0.00429671" y1="22.9993" x2="47.9825" y2="22.9993" gradientUnits="userSpaceOnUse">
<stop stop-color="#BA04FC"/>
<stop offset="1" stop-color="#6700EB"/>
</linearGradient>
</defs>
</svg>
