<svg width="157" height="46" viewBox="0 0 157 46" fill="none" xmlns="http://www.w3.org/2000/svg">
<path d="M67.0901 32.0773C65.1189 32.0773 63.4546 31.6585 62.0854 30.7983C60.7162 29.9493 59.7483 28.7721 59.2053 27.2554L62.0972 25.6367C62.9117 27.844 64.6114 28.9419 67.1727 28.9419C68.4239 28.9419 69.3682 28.7042 70.0056 28.2401C70.643 27.776 70.9735 27.1535 70.9735 26.3611C70.9735 25.5801 70.6312 24.9689 69.9466 24.5387C69.262 24.1086 68.058 23.6445 66.3229 23.1352C64.5523 22.6258 63.1241 22.0372 62.0264 21.3467C60.7044 20.4525 60.0434 19.1395 60.0434 17.3963C60.0434 15.6531 60.6808 14.2835 61.9674 13.2761C63.2304 12.2461 64.7766 11.7367 66.6062 11.7367C68.2233 11.7367 69.6515 12.1102 70.8791 12.8686C72.1185 13.627 73.0627 14.6797 73.7237 16.0493L70.8909 17.6227C70.0292 15.789 68.601 14.8834 66.5944 14.8834C65.6265 14.8834 64.8474 15.0985 64.2573 15.54C63.6789 15.9814 63.3838 16.57 63.3838 17.3171C63.3838 18.0415 63.6789 18.6188 64.2573 19.0376C64.8356 19.4564 65.9216 19.8979 67.5032 20.3733C68.4711 20.6902 69.0377 20.8826 69.1912 20.9279C69.439 21.0071 69.9466 21.1882 70.7138 21.4825C71.3394 21.7202 71.8352 21.9919 72.2011 22.2636C73.7237 23.4068 74.4202 24.7425 74.3021 26.2932C74.3021 28.0703 73.6293 29.4739 72.2837 30.5266C71.0207 31.568 69.2738 32.0773 67.0901 32.0773Z" fill="white"/>
<path d="M85.0787 17.3511C87.0617 17.3511 88.7732 18.0755 90.2132 19.5017C91.6297 20.9166 92.3497 22.6598 92.3497 24.7086C92.3497 26.78 91.6415 28.5232 90.2132 29.9494C88.7968 31.3643 87.0735 32.0774 85.0787 32.0774C82.8832 32.0774 81.1717 31.2964 79.9677 29.723V37.3069H76.8162V17.7133H79.9677V19.7281C81.1599 18.1434 82.8596 17.3511 85.0787 17.3511ZM81.2897 27.9346C82.1632 28.7722 83.2609 29.191 84.5947 29.191C85.9167 29.191 87.0145 28.7722 87.8997 27.9346C88.7732 27.0743 89.2099 25.999 89.2099 24.7086C89.2099 23.4182 88.7732 22.3542 87.8997 21.5166C87.0263 20.6563 85.9285 20.2262 84.5947 20.2262C83.2727 20.2262 82.175 20.6563 81.2897 21.5166C80.4163 22.3542 79.9795 23.4182 79.9795 24.7086C79.9677 25.9876 80.4044 27.0517 81.2897 27.9346Z" fill="white"/>
<path d="M106.549 19.6941V17.7019H109.701V31.7151H106.549V29.7003C105.357 31.285 103.658 32.0774 101.439 32.0774C99.4319 32.0774 97.7204 31.3642 96.3039 29.9493C94.8875 28.5344 94.1675 26.78 94.1675 24.7085C94.1675 22.6371 94.8757 20.894 96.3039 19.4677C97.7204 18.0528 99.4437 17.3397 101.439 17.3397C103.658 17.351 105.357 18.1321 106.549 19.6941ZM98.6293 27.9345C99.5027 28.7721 100.6 29.191 101.934 29.191C103.256 29.191 104.354 28.7721 105.239 27.9345C106.113 27.0743 106.549 25.9989 106.549 24.7085C106.549 23.4181 106.113 22.3541 105.239 21.5165C104.366 20.6563 103.268 20.2261 101.934 20.2261C100.612 20.2261 99.5145 20.6563 98.6293 21.5165C97.7558 22.3541 97.3191 23.4181 97.3191 24.7085C97.3191 25.9876 97.7558 27.0516 98.6293 27.9345Z" fill="white"/>
<path d="M119.25 27.8779L122.992 17.7133H126.356L120.749 32.1679C119.345 35.7901 116.972 37.5106 113.62 37.3182V34.4884C114.588 34.545 115.379 34.3525 115.981 33.8998C116.582 33.447 117.09 32.7339 117.503 31.7491L117.645 31.4661L111.46 17.7133H114.906L119.25 27.8779Z" fill="white"/>
<path d="M134.406 32.0774C132.211 32.0774 130.369 31.3642 128.882 29.9493C127.418 28.5118 126.687 26.7686 126.687 24.7085C126.687 22.6145 127.418 20.8713 128.882 19.4677C130.357 18.0528 132.199 17.3397 134.406 17.3397C135.823 17.3397 137.121 17.668 138.289 18.3245C139.458 18.981 140.331 19.8526 140.922 20.9619L138.207 22.4787C137.876 21.8108 137.369 21.2788 136.708 20.894C136.035 20.5091 135.268 20.3167 134.382 20.3167C133.096 20.3167 132.022 20.7355 131.136 21.5731C130.275 22.4334 129.85 23.4747 129.85 24.7085C129.85 25.9423 130.275 26.9837 131.136 27.844C132.01 28.6816 133.096 29.1004 134.382 29.1004C135.244 29.1004 136.011 28.908 136.708 28.5231C137.404 28.1383 137.924 27.6176 138.266 26.9384L140.981 28.4212C140.355 29.5418 139.458 30.4247 138.278 31.0813C137.097 31.7491 135.799 32.0774 134.406 32.0774Z" fill="white"/>
<path d="M156.892 25.999H145.265C145.501 27.0403 146.032 27.8553 146.859 28.4326C147.685 29.0099 148.712 29.3042 149.939 29.3042C151.592 29.3042 152.855 28.7269 153.705 27.5723L156.302 29.0325C154.885 31.07 152.749 32.0887 149.904 32.0887C147.543 32.0887 145.631 31.3982 144.156 30.0173C142.692 28.6137 141.96 26.8479 141.96 24.7199C141.96 22.6485 142.68 20.9053 144.12 19.4791C145.537 18.0642 147.39 17.3511 149.668 17.3511C151.793 17.3511 153.54 18.0755 154.921 19.5017C156.302 20.9393 156.998 22.6824 156.998 24.7425C157.01 25.1161 156.963 25.5349 156.892 25.999ZM145.242 23.5314H153.823C153.61 22.4334 153.126 21.5845 152.383 20.9845C151.627 20.3846 150.718 20.0903 149.656 20.0903C148.488 20.0903 147.52 20.3959 146.741 21.0185C145.95 21.6297 145.454 22.4674 145.242 23.5314Z" fill="white"/>
<path d="M23.9836 45.2416C21.7291 45.2416 19.4864 44.4153 17.7749 42.774L3.36269 28.9532C-0.0603505 25.6706 -0.0603505 20.328 3.36269 17.0454L17.7749 3.22463C21.1979 -0.0579485 26.7692 -0.0579485 30.1923 3.22463L44.6045 17.0454C48.0275 20.328 48.0275 25.6706 44.6045 28.9532L30.1923 42.774C28.4807 44.4153 26.2381 45.2416 23.9836 45.2416ZM23.9836 3.8585C22.5671 3.8585 21.1389 4.37919 20.053 5.42056L5.64079 19.23C3.48073 21.3014 3.48073 24.6859 5.64079 26.7573L20.053 40.5781C22.213 42.6495 25.7423 42.6495 27.9024 40.5781L42.3146 26.7573C44.4746 24.6859 44.4746 21.3014 42.3146 19.23L27.9142 5.40924C26.8282 4.37919 25.4 3.8585 23.9836 3.8585Z" fill="white"/>
<path d="M46.7881 1.14191C44.6634 -0.895555 40.544 -0.205081 34.5359 3.20201C33.6625 3.70005 32.7772 4.23205 31.8565 4.82065L34.1818 7.05054C34.8546 6.63173 35.5156 6.23556 36.1648 5.86202C40.0836 3.64346 42.3735 3.10013 43.5421 3.10013C44.0614 3.10013 44.3683 3.21333 44.4864 3.32652C44.8759 3.70005 45.1828 5.88466 41.8424 11.3066C41.4528 11.9291 41.0515 12.563 40.603 13.2082C40.0246 14.0571 39.399 14.9174 38.738 15.8003C37.9354 16.8643 37.0737 17.9396 36.1412 19.0376C33.8631 21.7316 31.2545 24.5161 28.4099 27.244C24.4084 31.0813 20.3008 34.477 16.4764 37.1484C15.5557 37.7936 14.6587 38.3935 13.7734 38.9368C13.1006 39.3556 12.4396 39.7518 11.7904 40.1253C6.13648 43.3287 3.85838 43.0457 3.46886 42.6608C3.06754 42.2873 2.77245 40.1027 6.11287 34.6808C6.49059 34.0582 6.90371 33.4243 7.35225 32.7791L5.02694 30.5493C4.42496 31.4208 3.85838 32.2811 3.33903 33.1074C-0.213856 38.8689 -0.933877 42.8193 1.19077 44.8568C1.98161 45.6151 3.05574 46 4.40135 46C6.65584 46 9.67755 44.936 13.4429 42.7967C14.3164 42.2986 15.2016 41.7666 16.1105 41.178C16.984 40.612 17.8811 40.0121 18.7899 39.3669C19.7932 38.6651 20.8083 37.9068 21.8353 37.1144C24.7626 34.8506 27.7607 32.2585 30.6998 29.44C34.6658 25.6254 38.2187 21.7089 41.0515 18.0189C41.7243 17.1473 42.3499 16.287 42.9401 15.4494C43.5539 14.5778 44.1086 13.7176 44.628 12.8913C48.1927 7.11846 48.9127 3.16805 46.7881 1.14191Z" fill="url(#paint0_linear)"/>
<defs>
<linearGradient id="paint0_linear" x1="0.00429671" y1="22.9993" x2="47.9825" y2="22.9993" gradientUnits="userSpaceOnUse">
<stop stop-color="#BA04FC"/>
<stop offset="1" stop-color="#6700EB"/>
</linearGradient>
</defs>
</svg>
