<svg width="233" height="233" viewBox="0 0 233 233" fill="none" xmlns="http://www.w3.org/2000/svg">
<g clip-path="url(#clip0_107_532)">
<path d="M177.121 83.258C171.2 83.258 165.797 85.518 161.728 89.22C157.66 85.518 152.256 83.258 146.335 83.258C140.41 83.258 135.002 85.519 130.931 89.221C129.259 87.699 127.352 86.438 125.286 85.461C132.753 76.298 137.114 64.669 137.114 52.366C137.115 23.491 113.627 0 84.756 0C55.878 0 32.383 23.491 32.383 52.366C32.383 72.471 44.032 90.766 61.852 99.451V163.322C61.852 201.408 92.84 232.394 130.929 232.394C169.021 232.394 200.012 201.408 200.012 163.322V106.15C200.012 93.527 189.743 83.258 177.121 83.258ZM47.383 52.366C47.383 31.762 64.148 15 84.756 15C105.356 15 122.115 31.762 122.115 52.366C122.115 64.068 116.586 74.915 107.648 81.881V52.366C107.648 39.738 97.378 29.464 84.755 29.464C72.126 29.464 61.851 39.738 61.851 52.366V81.879C52.912 74.915 47.383 64.068 47.383 52.366ZM185.012 163.322C185.012 193.137 160.75 217.394 130.929 217.394C101.111 217.394 76.852 193.137 76.852 163.322V94.887C76.865 94.636 76.865 94.385 76.852 94.136V52.366C76.852 48.009 80.398 44.464 84.756 44.464C89.108 44.464 92.649 48.009 92.649 52.366V106.15V122.601C92.649 126.743 96.007 130.101 100.149 130.101C104.291 130.101 107.649 126.743 107.649 122.601V106.15C107.649 101.798 111.189 98.257 115.54 98.257C119.891 98.257 123.43 101.798 123.43 106.15V122.601C123.43 126.743 126.788 130.101 130.93 130.101C135.072 130.101 138.43 126.743 138.43 122.601V106.15C138.43 101.798 141.977 98.257 146.337 98.257C150.689 98.257 154.23 101.798 154.23 106.15V122.601C154.23 126.743 157.588 130.101 161.73 130.101C165.872 130.101 169.23 126.743 169.23 122.601V106.15C169.23 101.798 172.771 98.257 177.123 98.257C181.474 98.257 185.014 101.798 185.014 106.15V163.322H185.012Z" fill="white"/>
</g>
<defs>
<clipPath id="clip0_107_532">
<rect width="232.395" height="232.395" fill="white"/>
</clipPath>
</defs>
</svg>
