<svg width="17" height="14" viewBox="0 0 17 14" fill="none" xmlns="http://www.w3.org/2000/svg">
<path d="M17 1.6574C16.3745 1.93878 15.7023 2.12828 14.9968 2.2137C15.7172 1.77656 16.2704 1.08388 16.5304 0.258409C15.8567 0.663249 15.1102 0.957547 14.3154 1.11618C13.68 0.429245 12.7727 0 11.7697 0C9.51787 0 7.86321 2.129 8.37179 4.33911C5.474 4.19196 2.90417 2.78507 1.18362 0.646739C0.269875 2.23523 0.70975 4.31327 2.26242 5.36556C1.6915 5.3469 1.15317 5.18827 0.683542 4.9234C0.645292 6.5607 1.80342 8.09249 3.48075 8.43345C2.98987 8.56839 2.45225 8.59998 1.90542 8.49374C2.34883 9.89776 3.63658 10.9192 5.16375 10.9479C3.6975 12.1129 1.85017 12.6333 0 12.4122C1.54346 13.415 3.37733 14 5.3465 14C11.8221 14 15.4806 8.45785 15.2596 3.48708C15.941 2.98821 16.5325 2.36587 17 1.6574Z" fill="#B0AADD" fill-opacity="0.5"/>
</svg>
