<svg width="14" height="18" viewBox="0 0 14 18" fill="none" xmlns="http://www.w3.org/2000/svg">
<path d="M1 15.3213C1 13.1763 2.45485 11.3493 4.43204 11.0112L4.61013 10.9808C6.19336 10.7101 7.80664 10.7101 9.38987 10.9808L9.56796 11.0112C11.5451 11.3493 13 13.1763 13 15.3213C13 16.2484 12.2984 17 11.433 17H2.56697C1.70156 17 1 16.2484 1 15.3213Z" stroke="#8F87CA" stroke-opacity="0.3" stroke-width="1.5"/>
<path d="M10.5 4.5C10.5 6.433 8.93301 8 7.00002 8C5.06702 8 3.50002 6.433 3.50002 4.5C3.50002 2.567 5.06702 1 7.00002 1C8.93301 1 10.5 2.567 10.5 4.5Z" stroke="#8F87CA" stroke-opacity="0.3" stroke-width="1.5"/>
</svg>
