<svg width="18" height="12" viewBox="0 0 18 12" fill="none" xmlns="http://www.w3.org/2000/svg">
<path d="M17.856 4.6403C17.5414 2.97176 16.6947 1.52435 15.364 0.257868C15.3157 0.19756 15.2431 0.157354 15.1705 0.117148C14.8076 -0.0838807 14.3963 -0.0235721 14.0576 0.277971C13.7431 0.559411 13.6947 0.90116 13.9608 1.1826C14.1544 1.38363 14.3721 1.58466 14.5415 1.80579C15.8721 3.35371 16.3802 5.08256 16.114 6.97223C15.9931 7.79645 15.7028 8.56036 15.2431 9.30416C14.9286 9.80673 14.5415 10.2691 14.1302 10.7114C13.8157 11.0531 13.9124 11.4351 14.3721 11.7366C14.735 11.9778 15.2189 11.9376 15.5092 11.6361C16.7431 10.4098 17.5173 9.02272 17.8318 7.4346C17.9043 7.13305 17.9285 6.81141 17.9769 6.48976C17.9769 6.16811 17.9769 5.84647 17.9769 5.52482C17.9285 5.22328 17.9043 4.92174 17.856 4.6403Z" fill="white" fill-opacity="0.8"/>
<path d="M7.57382 0.961535C6.1464 1.94658 4.74317 2.91152 3.31574 3.89656C3.24316 3.95687 3.12219 3.97697 3.02542 3.97697C2.3238 3.97697 1.59799 3.97697 0.896378 3.97697C0.339925 3.97697 0.0012142 4.25841 0.0012142 4.72078C0.0012142 5.5852 0.0012142 6.42952 0.0012142 7.29395C-0.0229794 7.77642 0.315731 8.03776 0.896378 8.03776C1.62219 8.03776 2.3238 8.03776 3.04961 8.03776C3.12219 8.03776 3.24316 8.07796 3.29155 8.11817C3.50929 8.25889 3.72703 8.41971 3.94478 8.58054C5.15446 9.42486 6.36414 10.2491 7.57382 11.0934C7.76737 11.2341 7.98511 11.3145 8.22705 11.2944C8.68673 11.2542 8.97705 10.9728 8.97705 10.5506C8.97705 9.0429 8.97705 7.53518 8.97705 6.02747C8.97705 4.51975 8.97705 3.03213 8.97705 1.52442C8.97705 1.34349 8.95286 1.18267 8.8077 1.02184C8.49318 0.680094 8.00931 0.659991 7.57382 0.961535Z" fill="white" fill-opacity="0.8"/>
<path d="M12.5821 2.61005C12.316 2.34871 11.9289 2.2482 11.566 2.38892C11.1547 2.54974 10.9128 2.9116 11.0095 3.23324C11.0579 3.39407 11.2031 3.55489 11.3241 3.69561C12.1708 4.70077 12.4127 5.80643 12.074 7.01261C11.9289 7.51519 11.6144 7.97756 11.2757 8.39972C10.9853 8.74147 11.1547 9.16364 11.6144 9.42498C11.9773 9.62601 12.4853 9.5657 12.7515 9.24405C13.5982 8.2791 14.0337 7.21364 14.0337 5.94715C14.0095 4.74097 13.5256 3.6152 12.5821 2.61005Z" fill="white" fill-opacity="0.8"/>
</svg>
