<svg width="26" height="16" viewBox="0 0 26 16" fill="none" xmlns="http://www.w3.org/2000/svg">
<path d="M0 12.8458C0 9.61083 0 6.38048 0 3.14549C0.0146487 3.09444 0.0390631 3.04802 0.0488289 2.99697C0.312505 1.62778 1.58206 0.597415 3.04204 0.597415C9.34585 0.592773 15.6545 0.588132 21.9584 0.602056C23.0619 0.602056 23.9408 1.08475 24.517 1.97588C24.7465 2.32862 24.8441 2.75562 25.0053 3.14549C25.0053 6.38048 25.0053 9.61083 25.0053 12.8458C24.9906 12.8737 24.9711 12.8969 24.9662 12.9294C24.6635 14.4471 23.4476 15.4032 21.8216 15.4078C20.3665 15.4078 18.9065 15.4032 17.4514 15.4078C16.5579 15.4125 15.801 15.1061 15.176 14.512C14.6877 14.0479 14.1994 13.5791 13.7063 13.1197C12.9787 12.4374 12.0266 12.4374 11.299 13.1197C10.7961 13.5931 10.298 14.0758 9.79508 14.5445C9.19936 15.1015 8.48646 15.4032 7.65149 15.4078C6.11338 15.4125 4.57527 15.4171 3.03716 15.4078C1.67971 15.3985 0.502938 14.5353 0.122072 13.296C0.0781262 13.1429 0.0390631 12.9943 0 12.8458ZM7.00206 10.9382C8.69642 10.9429 10.0978 9.61547 10.0978 8.00494C10.0978 6.3944 8.70131 5.06235 7.00695 5.06699C5.32235 5.06699 3.93073 6.38512 3.92096 7.98637C3.91119 9.5969 5.3077 10.9336 7.00206 10.9382ZM17.9983 10.9382C19.6927 10.9336 21.0892 9.5969 21.0794 7.99101C21.0697 6.38512 19.6829 5.07163 17.9983 5.06699C16.3088 5.06235 14.9026 6.3944 14.9026 8.00494C14.9026 9.61083 16.3088 10.9429 17.9983 10.9382Z" fill="white"/>
<path d="M7.01184 6.4595C7.90541 6.46414 8.64273 7.17426 8.63296 8.01433C8.61831 8.85441 7.88588 9.54596 7.00696 9.54132C6.11827 9.54132 5.37607 8.82192 5.38584 7.98184C5.40049 7.14641 6.13292 6.45485 7.01184 6.4595Z" fill="white"/>
<path d="M17.9834 6.4595C18.8721 6.45485 19.6192 7.16033 19.6143 8.00505C19.6094 8.84512 18.8819 9.54132 17.9981 9.54596C17.1094 9.5506 16.3623 8.84513 16.3672 8.00041C16.3721 7.16033 17.0996 6.46878 17.9834 6.4595Z" fill="white"/>
</svg>
