<svg width="23" height="22" viewBox="0 0 23 22" fill="none" xmlns="http://www.w3.org/2000/svg">
<path d="M22.415 1.98788C17.1793 1.98788 11.9436 1.98726 6.70782 1.99097C6.54413 1.99097 6.44052 1.94837 6.33997 1.80824C6.01197 1.35081 5.54725 1.07487 5.02429 0.902023C4.25487 0.647688 3.47258 0.622378 2.69396 0.851402C1.77373 1.12179 1.08033 1.64465 0.832031 2.63298C0.832031 8.22032 0.832031 13.8077 0.832031 19.395C1.29981 20.6759 2.25622 21.321 3.72517 21.3247C4.61046 21.3272 5.43383 21.1173 6.09964 20.4876C6.26211 20.3339 6.39208 20.1389 6.50979 19.9463C6.58152 19.829 6.64467 19.7765 6.78813 19.7771C7.91927 19.7839 9.05041 19.7808 10.1815 19.7808C14.2579 19.7808 18.3337 19.7808 22.4101 19.7808C22.4941 19.7808 22.5781 19.7808 22.6743 19.7808C22.6743 13.8502 22.6743 7.93635 22.6743 1.98726C22.5922 1.98788 22.5039 1.98788 22.415 1.98788ZM5.0948 19.6623C4.76312 19.8993 4.28124 20.0376 3.71965 20.0382C3.30827 20.0259 2.85275 19.9389 2.45486 19.6537C2.00792 19.3326 2.01038 18.94 2.45731 18.6166C3.155 18.111 4.40018 18.1091 5.09786 18.6122C5.55584 18.9419 5.55461 19.3333 5.0948 19.6623ZM5.44609 17.0504C5.44609 17.127 5.44609 17.2035 5.44609 17.3072C4.32783 16.8288 3.23103 16.8251 2.11276 17.3122C2.11276 17.1986 2.11276 17.1152 2.11276 17.0319C2.11276 12.3854 2.11521 7.73943 2.10786 3.09288C2.10724 2.7441 2.24151 2.51013 2.51924 2.32741C3.20098 1.87738 4.38178 1.88047 5.05801 2.33729C5.31796 2.51322 5.45161 2.73484 5.45161 3.0688C5.44426 7.72893 5.44609 12.3897 5.44609 17.0504ZM21.3912 18.4863C16.503 18.4863 11.6315 18.4863 6.74338 18.4863C6.74338 13.4218 6.74338 8.3623 6.74338 3.29042C11.6223 3.29042 16.4994 3.29042 21.3912 3.29042C21.3912 8.34749 21.3912 13.407 21.3912 18.4863Z" fill="#B0AADD" fill-opacity="0.75"/>
<path d="M17.9658 7.78081C18.4072 7.78081 18.8168 7.78081 19.2533 7.78081C19.2533 7.51166 19.2533 7.25116 19.2533 6.97275C19.5322 6.97275 19.7848 6.97275 20.0478 6.97275C20.0478 6.53507 20.0478 6.11653 20.0478 5.68009C19.7812 5.68009 19.528 5.68009 19.2484 5.68009C19.2484 5.40168 19.2484 5.14116 19.2484 4.87695C18.8119 4.87695 18.4023 4.87695 17.9652 4.87695C17.9652 5.1461 17.9652 5.40661 17.9652 5.68502C17.6856 5.68502 17.433 5.68502 17.1719 5.68502C17.1719 6.1227 17.1719 6.54124 17.1719 6.97768C17.4392 6.97768 17.6924 6.97768 17.9658 6.97768C17.9658 7.25054 17.9658 7.50487 17.9658 7.78081Z" fill="#B0AADD" fill-opacity="0.75"/>
<path d="M19.2459 13.9878C18.8168 13.9878 18.4066 13.9878 17.9701 13.9878C17.9701 14.2539 17.9701 14.5144 17.9701 14.7928C17.6912 14.7928 17.438 14.7928 17.1719 14.7928C17.1719 15.2298 17.1719 15.6484 17.1719 16.0922C17.441 16.0922 17.6997 16.0922 17.9756 16.0922C17.9756 16.3731 17.9756 16.6287 17.9756 16.8929C18.4048 16.8929 18.8143 16.8929 19.2502 16.8929C19.2502 16.6274 19.2502 16.3663 19.2502 16.0879C19.5292 16.0879 19.7824 16.0879 20.0485 16.0879C20.0485 15.6508 20.0485 15.2329 20.0485 14.7885C19.7799 14.7885 19.5218 14.7885 19.2453 14.7885C19.2459 14.507 19.2459 14.2514 19.2459 13.9878Z" fill="#B0AADD" fill-opacity="0.75"/>
<path d="M8.89555 7.77332C9.329 7.77332 9.74283 7.77332 10.1757 7.77332C10.1757 7.5017 10.1757 7.24737 10.1757 6.96587C10.4522 6.96587 10.7103 6.96587 10.9678 6.96587C10.9678 6.52634 10.9678 6.11459 10.9678 5.67691C10.6968 5.67691 10.4381 5.67691 10.1683 5.67691C10.1683 5.40159 10.1683 5.15219 10.1683 4.88428C9.72812 4.88428 9.31367 4.88428 8.88083 4.88428C8.88083 5.1559 8.88083 5.41146 8.88083 5.69173C8.60433 5.69173 8.34561 5.69173 8.0918 5.69173C8.0918 6.13002 8.0918 6.54239 8.0918 6.98192C8.36217 6.98192 8.62027 6.98192 8.89616 6.98192C8.89555 7.26342 8.89555 7.51775 8.89555 7.77332Z" fill="#B0AADD" fill-opacity="0.75"/>
<path d="M13.4376 7.77919C13.8704 7.77919 14.2799 7.77919 14.7128 7.77919C14.7128 7.50819 14.7128 7.24768 14.7128 6.96433C14.9948 6.96433 15.2535 6.96433 15.5092 6.96433C15.5092 6.52789 15.5092 6.11614 15.5092 5.6797C15.24 5.6797 14.9819 5.6797 14.7079 5.6797C14.7079 5.40129 14.7079 5.14633 14.7079 4.87842C14.2665 4.87842 13.8575 4.87842 13.4241 4.87842C13.4241 5.14942 13.4241 5.40931 13.4241 5.69328C13.1421 5.69328 12.8833 5.69328 12.6289 5.69328C12.6289 6.12972 12.6289 6.54147 12.6289 6.97791C12.8987 6.97791 13.1568 6.97791 13.4382 6.97791C13.4376 7.26249 13.4376 7.52301 13.4376 7.77919Z" fill="#B0AADD" fill-opacity="0.75"/>
<path d="M10.36 11.5381C10.6334 11.5381 10.8921 11.5381 11.1668 11.5381C11.1668 11.8184 11.1668 12.0733 11.1668 12.332C11.599 12.332 12.0135 12.332 12.4524 12.332C12.4524 12.0567 12.4524 11.7968 12.4524 11.5196C12.7302 11.5196 12.9834 11.5196 13.2353 11.5196C13.2353 11.0844 13.2353 10.6665 13.2353 10.2325C12.965 10.2325 12.7118 10.2325 12.434 10.2325C12.434 9.95533 12.434 9.69482 12.434 9.43555C11.9994 9.43555 11.5898 9.43555 11.1552 9.43555C11.1552 9.70655 11.1552 9.96706 11.1552 10.2442C10.8774 10.2442 10.6236 10.2442 10.3594 10.2442C10.36 10.6733 10.36 11.0856 10.36 11.5381Z" fill="#B0AADD" fill-opacity="0.75"/>
<path d="M14.9023 11.5381C15.1739 11.5381 15.4271 11.5381 15.7055 11.5381C15.7055 11.8171 15.7055 12.0776 15.7055 12.34C16.1353 12.34 16.5393 12.34 16.9856 12.34C16.9856 12.0597 16.9856 11.7992 16.9856 11.5214C17.2646 11.5214 17.5178 11.5214 17.7697 11.5214C17.7697 11.085 17.7697 10.6677 17.7697 10.2319C17.5 10.2319 17.2468 10.2319 16.9684 10.2319C16.9684 9.95283 16.9684 9.69294 16.9684 9.43799C16.5325 9.43799 16.1236 9.43799 15.6877 9.43799C15.6877 9.71146 15.6877 9.97135 15.6877 10.2491C15.4081 10.2491 15.1555 10.2491 14.903 10.2491C14.9023 10.6856 14.9023 11.1029 14.9023 11.5381Z" fill="#B0AADD" fill-opacity="0.75"/>
<path d="M8.89348 16.8898C9.32938 16.8898 9.73831 16.8898 10.1736 16.8898C10.1736 16.6188 10.1736 16.3589 10.1736 16.0805C10.4532 16.0805 10.7058 16.0805 10.9651 16.0805C10.9651 15.6434 10.9651 15.2261 10.9651 14.7903C10.6966 14.7903 10.4434 14.7903 10.1644 14.7903C10.1644 14.5119 10.1644 14.2514 10.1644 13.9902C9.7285 13.9902 9.31896 13.9902 8.88367 13.9902C8.88367 14.2619 8.88367 14.5224 8.88367 14.8002C8.60472 14.8002 8.35152 14.8002 8.08789 14.8002C8.08789 15.231 8.08789 15.6434 8.08789 16.0885C8.36071 16.0885 8.6133 16.0885 8.89287 16.0885C8.89348 16.3675 8.89348 16.6274 8.89348 16.8898Z" fill="#B0AADD" fill-opacity="0.75"/>
<path d="M14.6997 13.9893C14.2662 13.9893 13.8573 13.9893 13.4165 13.9893C13.4165 14.2695 13.4165 14.5245 13.4165 14.8029C13.1418 14.8029 12.8837 14.8029 12.625 14.8029C12.625 15.2393 12.625 15.6511 12.625 16.0869C12.8929 16.0869 13.1516 16.0869 13.433 16.0869C13.433 16.3709 13.433 16.6314 13.433 16.8913C13.8665 16.8913 14.2754 16.8913 14.7083 16.8913C14.7083 16.6215 14.7083 16.361 14.7083 16.0776C14.9903 16.0776 15.249 16.0776 15.4997 16.0776C15.4997 15.6363 15.4997 15.219 15.4997 14.7862C15.2288 14.7862 14.9756 14.7862 14.6991 14.7862C14.6997 14.5103 14.6997 14.2504 14.6997 13.9893Z" fill="#B0AADD" fill-opacity="0.75"/>
</svg>
