<svg width="17" height="16" viewBox="0 0 17 16" fill="none" xmlns="http://www.w3.org/2000/svg">
<path d="M5.53655 10.617C5.59125 10.617 5.64595 10.613 5.72019 10.6091C5.49357 8.84354 5.49747 7.09366 5.72409 5.33594C4.23935 5.33594 2.77806 5.33594 1.27378 5.33594C1.16829 5.82245 1.05107 6.30504 0.953393 6.79548C0.902599 7.0662 0.886971 7.34084 0.855713 7.61549C0.855713 7.86659 0.855713 8.11769 0.855713 8.3688C0.863527 8.41588 0.875249 8.45904 0.879156 8.50612C0.914321 9.17311 1.04717 9.82049 1.23862 10.46C1.27378 10.5816 1.32458 10.6209 1.45352 10.6209C2.81713 10.613 4.17684 10.617 5.53655 10.617Z" fill="#B0AADD" fill-opacity="0.5"/>
<path d="M6.68129 5.33594C6.66957 5.38694 6.65785 5.4301 6.65394 5.47718C6.59924 6.12848 6.52891 6.77978 6.50156 7.43108C6.45858 8.44726 6.52109 9.45952 6.64613 10.4679C6.66175 10.5856 6.70083 10.6248 6.81804 10.6209C7.64637 10.617 8.4747 10.617 9.30303 10.617C9.84613 10.617 10.3853 10.613 10.9284 10.6209C11.0339 10.6209 11.0769 10.5856 11.0847 10.4796C11.1004 10.3031 11.1277 10.1265 11.1472 9.94996C11.2605 8.77684 11.2801 7.59979 11.1785 6.42667C11.1472 6.06178 11.1043 5.70082 11.0652 5.33594C9.58826 5.33594 8.13477 5.33594 6.68129 5.33594Z" fill="#B0AADD" fill-opacity="0.5"/>
<path d="M16.4571 5.46546C16.422 5.35561 16.3751 5.32422 16.2618 5.32422C14.8904 5.32814 13.5228 5.32814 12.1514 5.32814C12.1045 5.32814 12.0537 5.32814 11.9912 5.32814C12.2256 7.09764 12.2256 8.84359 11.999 10.617C12.2413 10.617 12.4562 10.617 12.6672 10.617C13.8706 10.617 15.074 10.617 16.2774 10.617C16.3516 10.617 16.4259 10.6327 16.4571 10.5228C16.6447 9.92647 16.7736 9.32226 16.8283 8.69842C16.9221 7.59592 16.7971 6.52088 16.4571 5.46546Z" fill="#B0AADD" fill-opacity="0.5"/>
<path d="M11.9598 11.5547C11.866 11.5547 11.8387 11.5939 11.8191 11.6802C11.7449 11.9902 11.6707 12.3002 11.5769 12.6023C11.2253 13.7008 10.7642 14.7406 9.97495 15.5998C9.85773 15.7293 9.72098 15.8431 9.59204 15.9647C9.60376 15.9804 9.61548 15.9922 9.62721 16.0079C12.5146 15.6469 14.6323 14.1599 16.0428 11.5822C15.9881 11.5704 15.9725 11.5625 15.9569 11.5625C14.6245 11.5547 13.2922 11.5547 11.9598 11.5547Z" fill="#B0AADD" fill-opacity="0.5"/>
<path d="M7.91998 15.7685C7.66211 15.4547 7.38079 15.1565 7.15808 14.8151C6.54465 13.8696 6.12657 12.8377 5.91559 11.7273C5.89214 11.5979 5.84526 11.5508 5.7046 11.5508C4.42303 11.5586 3.14147 11.5547 1.85991 11.5547C1.80911 11.5547 1.76223 11.5586 1.67627 11.5626C3.08677 14.156 5.21229 15.6391 8.12316 15.9726C8.05673 15.9059 7.9825 15.8431 7.91998 15.7685Z" fill="#B0AADD" fill-opacity="0.5"/>
<path d="M11.0848 1.99706C11.4756 2.74252 11.6553 3.55861 11.8389 4.3747C13.226 4.3747 14.6052 4.3747 15.9923 4.3747C14.8631 2.04022 12.382 0.219716 9.56885 0C10.1823 0.600295 10.6941 1.25552 11.0848 1.99706Z" fill="#B0AADD" fill-opacity="0.5"/>
<path d="M6.63059 2.00098C7.00959 1.25159 7.47064 0.564982 8.14268 0C5.03254 0.266797 2.6765 2.34625 1.73486 4.38254C3.11411 4.38254 4.49335 4.38254 5.88431 4.38254C6.06404 3.5586 6.25159 2.75037 6.63059 2.00098Z" fill="#B0AADD" fill-opacity="0.5"/>
<path d="M10.8894 11.5625C9.53362 11.5625 8.19345 11.5625 6.83765 11.5625C7.01347 12.4061 7.244 13.2104 7.64253 13.9598C7.83789 14.3246 8.0606 14.6738 8.40444 14.921C8.6584 15.1015 8.93582 15.1682 9.20541 14.9838C9.39687 14.8543 9.58441 14.6974 9.72116 14.5169C10.3776 13.6459 10.6511 12.6179 10.8894 11.5625Z" fill="#B0AADD" fill-opacity="0.5"/>
<path d="M6.84546 4.37854C8.20126 4.37854 9.53361 4.37854 10.8777 4.37854C10.7175 3.637 10.5182 2.91901 10.19 2.24416C10.0103 1.87536 9.80711 1.52617 9.51798 1.2319C9.10382 0.81209 8.67012 0.796396 8.24424 1.20052C8.15046 1.29076 8.0606 1.38884 7.98636 1.49478C7.3573 2.3501 7.07989 3.34667 6.84546 4.37854Z" fill="#B0AADD" fill-opacity="0.5"/>
</svg>
