<svg width="136" height="9" viewBox="0 0 136 9" fill="none" xmlns="http://www.w3.org/2000/svg">
<path fill-rule="evenodd" clip-rule="evenodd" d="M1.5 0H0V3H1.5C3.56483 3 4.5465 3.9703 5.91035 5.38068L5.96153 5.43362C7.3345 6.85398 9.09565 8.67592 12.4773 8.67592C15.859 8.67592 17.6201 6.85398 18.9931 5.43362L19.0443 5.38068C20.4081 3.9703 21.3898 3 23.4546 3C25.5193 3 26.5011 3.97029 27.8627 5.38005L27.9166 5.43584C29.2865 6.85471 31.0448 8.67592 34.4191 8.67592C37.8029 8.67592 39.564 6.85189 40.9364 5.43056L40.9851 5.38005C42.3485 3.96849 43.3265 3 45.3835 3C47.4483 3 48.4301 3.9703 49.7917 5.38005L49.8456 5.4359C51.2155 6.85474 52.9737 8.67592 56.3479 8.67592C59.7297 8.67592 61.4909 6.85392 62.8638 5.43353L62.9149 5.38067C64.2788 3.97026 65.2604 3 67.325 3C69.3899 3 70.3717 3.97032 71.7355 5.38069L71.7867 5.43362C73.1597 6.85398 74.9209 8.67592 78.3026 8.67592C81.6841 8.67592 83.4452 6.85401 84.8181 5.43369L84.8693 5.38067C86.2331 3.97032 87.2148 3 89.2797 3C91.3446 3 92.3263 3.97032 93.6902 5.38069L93.7414 5.43362C95.1144 6.85399 96.8756 8.67592 100.257 8.67592C103.639 8.67592 105.4 6.85401 106.773 5.4337L106.824 5.38068C108.188 3.97032 109.17 3 111.234 3H111.707C113.772 3 114.754 3.9703 116.118 5.38068L116.169 5.43362C117.542 6.85398 119.303 8.67592 122.685 8.67592C126.066 8.67592 127.828 6.85398 129.201 5.43362L129.252 5.38068C130.616 3.9703 131.597 3 133.662 3H135.162V0H133.662C130.28 0 128.519 1.82194 127.146 3.2423L127.095 3.29524C125.731 4.70562 124.75 5.67592 122.685 5.67592C120.62 5.67592 119.638 4.70562 118.274 3.29524L118.223 3.2423C116.997 1.97324 115.46 0.383593 112.734 0.0593314V0H111.707H111.234H110.207V0.0593291C107.482 0.38359 105.945 1.97329 104.719 3.24238L104.667 3.29524C103.304 4.70566 102.322 5.67592 100.257 5.67592C98.1924 5.67592 97.2107 4.7056 95.8468 3.29523L95.7956 3.24229C94.4226 1.82193 92.6614 0 89.2797 0C85.898 0 84.1368 1.822 82.7638 3.24239L82.7127 3.29524C81.3488 4.70566 80.3672 5.67592 78.3026 5.67592C76.2377 5.67592 75.256 4.7056 73.8921 3.29523L73.8409 3.24228C72.4679 1.82192 70.7067 0 67.325 0C63.9436 0 62.1825 1.82191 60.8096 3.24222L60.7583 3.29524C59.3945 4.7056 58.4128 5.67592 56.3479 5.67592C54.2909 5.67592 53.3129 4.70743 51.9495 3.29587L51.9008 3.24535C50.5284 1.82402 48.7673 0 45.3835 0C42.0093 0 40.2511 1.82117 38.8813 3.24001L38.8273 3.29587C37.4657 4.70561 36.4839 5.67592 34.4191 5.67592C32.3619 5.67592 31.3839 4.70741 30.0206 3.29587L29.9717 3.24529C28.5994 1.82399 26.8383 0 23.4546 0C20.073 0 18.3118 1.82194 16.9388 3.2423L16.8877 3.29524C15.5238 4.70562 14.5421 5.67592 12.4773 5.67592C10.4125 5.67592 9.4308 4.70562 8.06695 3.29524L8.01577 3.2423C6.64281 1.82194 4.88166 0 1.5 0Z" fill="#B0AADD" fill-opacity="0.2"/>
</svg>
